<svg width="312" height="312" viewBox="0 0 312 312" fill="none" xmlns="http://www.w3.org/2000/svg">
<rect width="312" height="312" rx="8" fill="#FAE9DA"/>
<path fill-rule="evenodd" clip-rule="evenodd" d="M175.465 161.79H116.96C114.475 161.79 112.46 159.776 112.46 157.29C112.46 154.805 114.475 152.79 116.96 152.79H91.887C89.4016 152.79 87.3867 150.775 87.3867 148.289C87.3867 145.804 89.4016 143.789 91.887 143.789H117.603C120.089 143.789 122.104 141.774 122.104 139.289C122.104 136.803 120.089 134.788 117.603 134.788H101.531C99.0452 134.788 97.0303 132.774 97.0303 130.288C97.0303 127.803 99.0452 125.788 101.531 125.788H127.247C124.761 125.788 122.746 123.773 122.746 121.287C122.746 118.802 124.761 116.787 127.247 116.787H163.892C166.378 116.787 168.393 118.802 168.393 121.287C168.393 123.773 166.378 125.788 163.892 125.788H205.038C207.524 125.788 209.539 127.803 209.539 130.288C209.539 132.774 207.524 134.788 205.038 134.788H219.182C221.668 134.788 223.682 136.803 223.682 139.289C223.682 141.774 221.668 143.789 219.182 143.789H206.967C204.481 143.789 202.467 145.804 202.467 148.289C202.467 150.775 204.481 152.79 206.967 152.79H210.824C213.31 152.79 215.325 154.805 215.325 157.29C215.325 159.776 213.31 161.79 210.824 161.79H177.393C177.062 161.79 176.74 161.755 176.429 161.687C176.118 161.755 175.796 161.79 175.465 161.79Z" fill="#FDF6EF"/>
<circle cx="221.112" cy="157.289" r="4.50033" fill="#FDF6EF"/>
<path fill-rule="evenodd" clip-rule="evenodd" d="M131.925 165.084L129.309 165.452C127.902 165.649 126.602 164.67 126.404 163.263L119.246 112.331C119.048 110.925 120.028 109.624 121.435 109.427L171.73 102.358C173.136 102.161 174.437 103.141 174.634 104.547C174.634 104.547 175.092 107.804 175.25 108.924" fill="white"/>
<path fill-rule="evenodd" clip-rule="evenodd" d="M133.55 162.249L131.174 162.587C129.897 162.768 128.718 161.88 128.54 160.603L122.114 114.363C121.937 113.086 122.828 111.903 124.105 111.722L169.776 105.231C171.053 105.049 172.232 105.937 172.409 107.214L172.962 111.188C172.992 111.403 174.964 125.675 178.88 154.004C179.077 155.426 178.096 156.741 176.689 156.94C176.674 156.942 176.659 156.944 176.644 156.946L133.55 162.249Z" fill="#FDF6EF"/>
<path d="M131.925 165.084L129.309 165.452C127.902 165.649 126.602 164.67 126.404 163.263L119.246 112.331C119.048 110.925 120.028 109.624 121.435 109.427L171.73 102.358C173.136 102.161 174.437 103.141 174.634 104.547C174.634 104.547 175.092 107.804 175.25 108.924" stroke="#E06D38" stroke-width="1.60726" stroke-linecap="round"/>
<path d="M175.786 111.887L176.107 113.893" stroke="#E06D38" stroke-width="1.60726" stroke-linecap="round"/>
<path d="M140.632 114.528C140.734 113.557 141.604 112.853 142.575 112.955L193.086 118.264C194.057 118.366 194.762 119.236 194.66 120.207L189.284 171.357C189.182 172.328 188.312 173.033 187.341 172.931L136.829 167.622C135.858 167.52 135.154 166.65 135.256 165.679L140.632 114.528Z" fill="white" stroke="#E06D38" stroke-width="1.60726"/>
<path fill-rule="evenodd" clip-rule="evenodd" d="M145.048 120.164C145.16 119.105 146.109 118.336 147.168 118.448L187.449 122.681C188.509 122.793 189.277 123.742 189.166 124.801L185.604 158.688C185.493 159.748 184.544 160.516 183.484 160.405L143.203 156.171C142.144 156.06 141.375 155.111 141.487 154.052L145.048 120.164Z" fill="white"/>
<path fill-rule="evenodd" clip-rule="evenodd" d="M147.009 146.281L153.308 142.032C154.358 141.324 155.768 141.486 156.63 142.414L161.242 147.379C161.472 147.627 161.855 147.654 162.118 147.441L171.98 139.45C173.168 138.488 174.928 138.768 175.758 140.052L182.175 149.977L183.097 151.515L182.655 156.738C182.625 157.098 182.303 157.363 181.944 157.323L145.322 153.254C144.974 153.215 144.721 152.905 144.753 152.556L145.238 147.285L147.009 146.281Z" fill="#FDF6EF"/>
<path d="M145.848 120.248C145.913 119.63 146.466 119.182 147.084 119.247L187.365 123.481C187.983 123.546 188.432 124.099 188.367 124.717L184.805 158.604C184.74 159.222 184.186 159.671 183.568 159.606L143.287 155.372C142.669 155.307 142.221 154.753 142.286 154.136L145.848 120.248Z" stroke="#E06D38" stroke-width="1.60726"/>
<ellipse cx="154.912" cy="130.898" rx="3.85743" ry="3.85743" transform="rotate(6 154.912 130.898)" fill="#FDF6EF" stroke="#E06D38" stroke-width="1.60726"/>
<path d="M145.715 147.274C148.246 145.527 153.307 142.031 153.307 142.031C154.358 141.323 155.767 141.485 156.63 142.413L161.242 147.378C161.472 147.626 161.855 147.653 162.117 147.44L171.979 139.449C173.083 138.555 174.702 138.725 175.596 139.828C175.654 139.899 175.708 139.974 175.758 140.051C175.758 140.051 181.524 149.2 182.871 151.338" stroke="#E06D38" stroke-width="1.60726" stroke-linecap="round"/>
<path d="M103.324 203.684H108.42V205H101.896V195.382H103.324V203.684ZM113.298 205.168C111.226 205.168 109.476 203.432 109.476 201.374C109.476 199.316 111.226 197.594 113.298 197.594C115.356 197.594 117.092 199.316 117.092 201.374C117.092 203.432 115.356 205.168 113.298 205.168ZM113.298 203.964C114.6 203.964 115.706 202.788 115.706 201.374C115.706 199.974 114.6 198.798 113.298 198.798C111.968 198.798 110.862 199.974 110.862 201.374C110.862 202.788 111.968 203.964 113.298 203.964ZM121.752 197.594C123.698 197.594 124.776 198.826 124.776 200.618V205H123.418V204.006C122.886 204.762 121.892 205.168 121.01 205.168C119.47 205.168 118.336 204.272 118.336 202.858C118.336 201.416 119.638 200.45 121.234 200.45C121.948 200.45 122.718 200.604 123.418 200.842V200.618C123.418 199.708 122.998 198.742 121.556 198.742C120.842 198.742 120.142 199.022 119.512 199.344L119.008 198.322C120.044 197.804 120.954 197.594 121.752 197.594ZM121.276 204.076C122.172 204.076 123.18 203.628 123.418 202.732V201.766C122.83 201.584 122.158 201.486 121.444 201.486C120.478 201.486 119.666 202.032 119.666 202.816C119.666 203.6 120.366 204.076 121.276 204.076ZM132.352 195.214H133.724V205H132.352V203.74C131.792 204.636 130.896 205.168 129.776 205.168C127.872 205.168 126.444 203.6 126.444 201.374C126.444 199.162 127.872 197.594 129.776 197.594C130.896 197.594 131.792 198.126 132.352 199.008V195.214ZM130.112 203.964C131.414 203.964 132.352 202.886 132.352 201.374C132.352 199.862 131.414 198.798 130.112 198.798C128.782 198.798 127.844 199.862 127.844 201.374C127.844 202.886 128.782 203.964 130.112 203.964ZM136.49 196.558C136.014 196.558 135.65 196.166 135.65 195.718C135.65 195.284 136.014 194.892 136.49 194.892C136.938 194.892 137.316 195.284 137.316 195.718C137.316 196.166 136.938 196.558 136.49 196.558ZM135.79 205V197.762H137.176V205H135.79ZM142.863 197.594C144.459 197.594 145.579 198.756 145.579 200.394V205H144.221V200.632C144.221 199.554 143.535 198.798 142.555 198.798C141.547 198.798 140.679 199.456 140.567 200.31V205H139.181V197.762H140.567V198.812C141.001 198.098 141.883 197.594 142.863 197.594ZM153.064 197.762H154.45V204.23C154.45 206.092 152.924 207.408 150.782 207.408C149.564 207.408 148.444 207.002 147.758 206.442L148.304 205.406C148.836 205.91 149.704 206.204 150.572 206.204C152.126 206.204 153.064 205.462 153.064 204.202V203.152C152.49 203.978 151.594 204.468 150.502 204.468C148.598 204.468 147.212 203.04 147.212 201.024C147.212 199.008 148.598 197.594 150.502 197.594C151.594 197.594 152.518 198.112 153.064 198.924V197.762ZM150.852 203.264C152.14 203.264 153.064 202.34 153.064 201.024C153.064 199.722 152.14 198.798 150.852 198.798C149.564 198.798 148.654 199.722 148.654 201.024C148.654 202.34 149.564 203.264 150.852 203.264ZM161.209 196.558C160.733 196.558 160.369 196.166 160.369 195.718C160.369 195.284 160.733 194.892 161.209 194.892C161.657 194.892 162.035 195.284 162.035 195.718C162.035 196.166 161.657 196.558 161.209 196.558ZM160.509 205V197.762H161.895V205H160.509ZM171.992 197.594C173.504 197.594 174.596 198.756 174.596 200.394V205H173.238V200.604C173.238 199.54 172.608 198.798 171.698 198.798C170.662 198.798 169.934 199.484 169.934 200.478V205H168.576V200.604C168.576 199.54 167.946 198.798 167.036 198.798C166 198.798 165.272 199.484 165.272 200.478V205H163.886V197.762H165.272V198.77C165.636 198.056 166.392 197.594 167.316 197.594C168.366 197.594 169.22 198.154 169.64 199.05C169.976 198.154 170.9 197.594 171.992 197.594ZM179.625 197.594C181.571 197.594 182.649 198.826 182.649 200.618V205H181.291V204.006C180.759 204.762 179.765 205.168 178.883 205.168C177.343 205.168 176.209 204.272 176.209 202.858C176.209 201.416 177.511 200.45 179.107 200.45C179.821 200.45 180.591 200.604 181.291 200.842V200.618C181.291 199.708 180.871 198.742 179.429 198.742C178.715 198.742 178.015 199.022 177.385 199.344L176.881 198.322C177.917 197.804 178.827 197.594 179.625 197.594ZM179.149 204.076C180.045 204.076 181.053 203.628 181.291 202.732V201.766C180.703 201.584 180.031 201.486 179.317 201.486C178.351 201.486 177.539 202.032 177.539 202.816C177.539 203.6 178.239 204.076 179.149 204.076ZM190.156 197.762H191.542V204.23C191.542 206.092 190.016 207.408 187.874 207.408C186.656 207.408 185.536 207.002 184.85 206.442L185.396 205.406C185.928 205.91 186.796 206.204 187.664 206.204C189.218 206.204 190.156 205.462 190.156 204.202V203.152C189.582 203.978 188.686 204.468 187.594 204.468C185.69 204.468 184.304 203.04 184.304 201.024C184.304 199.008 185.69 197.594 187.594 197.594C188.686 197.594 189.61 198.112 190.156 198.924V197.762ZM187.944 203.264C189.232 203.264 190.156 202.34 190.156 201.024C190.156 199.722 189.232 198.798 187.944 198.798C186.656 198.798 185.746 199.722 185.746 201.024C185.746 202.34 186.656 203.264 187.944 203.264ZM196.927 203.936C197.683 203.936 198.565 203.6 198.999 203.152L199.867 204.048C199.223 204.734 197.963 205.168 196.941 205.168C194.925 205.168 193.217 203.586 193.217 201.36C193.217 199.19 194.827 197.594 196.829 197.594C199.041 197.594 200.315 199.274 200.315 201.864H194.617C194.799 203.068 195.681 203.936 196.927 203.936ZM196.885 198.826C195.765 198.826 194.855 199.582 194.631 200.758H198.971C198.817 199.638 198.131 198.826 196.885 198.826ZM202.789 205.168C202.257 205.168 201.851 204.734 201.851 204.216C201.851 203.74 202.257 203.306 202.789 203.306C203.293 203.306 203.699 203.74 203.699 204.216C203.699 204.734 203.293 205.168 202.789 205.168ZM206.494 205.168C205.962 205.168 205.556 204.734 205.556 204.216C205.556 203.74 205.962 203.306 206.494 203.306C206.998 203.306 207.404 203.74 207.404 204.216C207.404 204.734 206.998 205.168 206.494 205.168ZM210.199 205.168C209.667 205.168 209.261 204.734 209.261 204.216C209.261 203.74 209.667 203.306 210.199 203.306C210.703 203.306 211.109 203.74 211.109 204.216C211.109 204.734 210.703 205.168 210.199 205.168Z" fill="#E06D38"/>
</svg>
