<svg width="32" height="40" viewBox="0 0 32 40" fill="none" xmlns="http://www.w3.org/2000/svg">
<path d="M0 4C0 1.79086 1.79086 0 4 0H20L32 12V36C32 38.2091 30.2091 40 28 40H4C1.79086 40 0 38.2091 0 36V4Z" fill="#00A061"/>
<path opacity="0.3" d="M20 0L32 12H24C21.7909 12 20 10.2091 20 8V0Z" fill="white"/>
<path d="M5.82385 32C5.59585 32 5.38585 31.943 5.19385 31.829C5.00785 31.715 4.85785 31.565 4.74385 31.379C4.62985 31.187 4.57285 30.977 4.57285 30.749V26.771C4.57285 26.543 4.62985 26.336 4.74385 26.15C4.85785 25.958 5.00785 25.805 5.19385 25.691C5.38585 25.577 5.59585 25.52 5.82385 25.52H11.0348V26.717H6.07585C5.97985 26.717 5.90185 26.744 5.84185 26.798C5.78785 26.852 5.76085 26.93 5.76085 27.032V30.488C5.76085 30.584 5.78785 30.662 5.84185 30.722C5.90185 30.776 5.97985 30.803 6.07585 30.803H11.0348V32H5.82385ZM13.1972 32C12.9692 32 12.7592 31.943 12.5672 31.829C12.3812 31.715 12.2312 31.565 12.1172 31.379C12.0032 31.187 11.9462 30.977 11.9462 30.749V30.254H13.1342V30.695C13.1342 30.725 13.1432 30.752 13.1612 30.776C13.1852 30.794 13.2122 30.803 13.2422 30.803H17.1212C17.1512 30.803 17.1752 30.794 17.1932 30.776C17.2172 30.752 17.2292 30.725 17.2292 30.695V29.462C17.2292 29.432 17.2172 29.408 17.1932 29.39C17.1752 29.372 17.1512 29.363 17.1212 29.363H13.1972C12.9692 29.363 12.7592 29.306 12.5672 29.192C12.3812 29.078 12.2312 28.928 12.1172 28.742C12.0032 28.55 11.9462 28.337 11.9462 28.103V26.771C11.9462 26.543 12.0032 26.336 12.1172 26.15C12.2312 25.958 12.3812 25.805 12.5672 25.691C12.7592 25.577 12.9692 25.52 13.1972 25.52H17.1752C17.4032 25.52 17.6102 25.577 17.7962 25.691C17.9882 25.805 18.1412 25.958 18.2552 26.15C18.3692 26.336 18.4262 26.543 18.4262 26.771V27.266H17.2292V26.825C17.2292 26.795 17.2172 26.771 17.1932 26.753C17.1752 26.729 17.1512 26.717 17.1212 26.717H13.2422C13.2122 26.717 13.1852 26.729 13.1612 26.753C13.1432 26.771 13.1342 26.795 13.1342 26.825V28.058C13.1342 28.088 13.1432 28.112 13.1612 28.13C13.1852 28.148 13.2122 28.157 13.2422 28.157H17.1752C17.4032 28.157 17.6102 28.214 17.7962 28.328C17.9882 28.442 18.1412 28.595 18.2552 28.787C18.3692 28.973 18.4262 29.183 18.4262 29.417V30.749C18.4262 30.977 18.3692 31.187 18.2552 31.379C18.1412 31.565 17.9882 31.715 17.7962 31.829C17.6102 31.943 17.4032 32 17.1752 32H13.1972ZM22.9728 32L19.2198 25.52H20.6058L23.5038 30.56L26.4108 25.52H27.7878L24.0348 32H22.9728Z" fill="white"/>
</svg>
