<svg width="32" height="40" viewBox="0 0 32 40" fill="none" xmlns="http://www.w3.org/2000/svg">
<path d="M0 4C0 1.79086 1.79086 0 4 0H20L32 12V36C32 38.2091 30.2091 40 28 40H4C1.79086 40 0 38.2091 0 36V4Z" fill="#494FE3"/>
<path opacity="0.3" d="M20 0L32 12H24C21.7909 12 20 10.2091 20 8V0Z" fill="white"/>
<path d="M5.34231 32V25.52H10.5623C10.7903 25.52 11.0003 25.577 11.1923 25.691C11.3843 25.805 11.5373 25.958 11.6513 26.15C11.7653 26.336 11.8223 26.543 11.8223 26.771V30.749C11.8223 30.977 11.7653 31.187 11.6513 31.379C11.5373 31.565 11.3843 31.715 11.1923 31.829C11.0003 31.943 10.7903 32 10.5623 32H5.34231ZM6.62931 30.803H10.5083C10.5383 30.803 10.5653 30.794 10.5893 30.776C10.6133 30.752 10.6253 30.725 10.6253 30.695V26.825C10.6253 26.795 10.6133 26.771 10.5893 26.753C10.5653 26.729 10.5383 26.717 10.5083 26.717H6.62931C6.59931 26.717 6.57231 26.729 6.54831 26.753C6.53031 26.771 6.52131 26.795 6.52131 26.825V30.695C6.52131 30.725 6.53031 30.752 6.54831 30.776C6.57231 30.794 6.59931 30.803 6.62931 30.803ZM14.0632 32C13.8352 32 13.6252 31.943 13.4332 31.829C13.2472 31.715 13.0972 31.565 12.9832 31.379C12.8692 31.187 12.8122 30.977 12.8122 30.749V26.771C12.8122 26.543 12.8692 26.336 12.9832 26.15C13.0972 25.958 13.2472 25.805 13.4332 25.691C13.6252 25.577 13.8352 25.52 14.0632 25.52H18.0412C18.2692 25.52 18.4762 25.577 18.6622 25.691C18.8542 25.805 19.0072 25.958 19.1212 26.15C19.2352 26.336 19.2922 26.543 19.2922 26.771V30.749C19.2922 30.977 19.2352 31.187 19.1212 31.379C19.0072 31.565 18.8542 31.715 18.6622 31.829C18.4762 31.943 18.2692 32 18.0412 32H14.0632ZM14.1082 30.803H17.9782C18.0082 30.803 18.0352 30.794 18.0592 30.776C18.0832 30.752 18.0952 30.725 18.0952 30.695V26.825C18.0952 26.795 18.0832 26.771 18.0592 26.753C18.0352 26.729 18.0082 26.717 17.9782 26.717H14.1082C14.0782 26.717 14.0512 26.729 14.0272 26.753C14.0092 26.771 14.0002 26.795 14.0002 26.825V30.695C14.0002 30.725 14.0092 30.752 14.0272 30.776C14.0512 30.794 14.0782 30.803 14.1082 30.803ZM21.5343 32C21.3063 32 21.0963 31.943 20.9043 31.829C20.7183 31.715 20.5683 31.565 20.4543 31.379C20.3403 31.187 20.2833 30.977 20.2833 30.749V26.771C20.2833 26.543 20.3403 26.336 20.4543 26.15C20.5683 25.958 20.7183 25.805 20.9043 25.691C21.0963 25.577 21.3063 25.52 21.5343 25.52H26.7453V26.717H21.7863C21.6903 26.717 21.6123 26.744 21.5523 26.798C21.4983 26.852 21.4713 26.93 21.4713 27.032V30.488C21.4713 30.584 21.4983 30.662 21.5523 30.722C21.6123 30.776 21.6903 30.803 21.7863 30.803H26.7453V32H21.5343Z" fill="white"/>
</svg>
