<svg width="20" height="21" viewBox="0 0 20 21" fill="none" xmlns="http://www.w3.org/2000/svg">
<path d="M8.95245 4.7436C9.29113 4.69353 9.64051 4.66667 10.0003 4.66667C14.2545 4.66667 17.0461 8.4207 17.9839 9.90569C18.0974 10.0854 18.1542 10.1753 18.1859 10.3139C18.2098 10.418 18.2098 10.5822 18.1859 10.6863C18.1541 10.8249 18.097 10.9154 17.9827 11.0963C17.7328 11.4918 17.3518 12.0476 16.8471 12.6504M5.6036 6.09586C3.80187 7.31808 2.57871 9.01615 2.01759 9.9044C1.90357 10.0849 1.84656 10.1751 1.81478 10.3137C1.79091 10.4178 1.7909 10.582 1.81476 10.6861C1.84652 10.8247 1.90328 10.9146 2.01678 11.0943C2.95462 12.5793 5.74618 16.3333 10.0003 16.3333C11.7157 16.3333 13.1932 15.723 14.4073 14.8972M2.50035 3L17.5003 18M8.23258 8.73223C7.78017 9.18464 7.50035 9.80964 7.50035 10.5C7.50035 11.8807 8.61963 13 10.0003 13C10.6907 13 11.3157 12.7202 11.7681 12.2678" stroke="#8A5136" stroke-opacity="0.35" stroke-width="1.5" stroke-linecap="round" stroke-linejoin="round"/>
</svg>
