<svg width="104" height="33" viewBox="0 0 104 33" fill="none" xmlns="http://www.w3.org/2000/svg">
<path d="M6.05835 32.6604C3.171 32.6604 0.971922 30.4278 0.971922 27.6915C0.971922 23.9312 4.53074 20.7249 8.291 20.7249C11.2623 20.7249 13.3942 22.9072 13.3942 25.6939C13.3942 29.4373 9.81861 32.6604 6.05835 32.6604ZM6.29336 30.411C8.71068 30.411 10.8762 28.0608 10.8762 25.7778C10.8762 24.183 9.71789 22.9744 8.08956 22.9744C5.67225 22.9744 3.48995 25.2406 3.48995 27.5908C3.48995 29.152 4.69861 30.411 6.29336 30.411ZM24.7342 23.159H18.3216L17.8347 25.6603H23.6262L23.1562 27.893H17.3479L16.4079 32.459H13.9234L16.3239 20.9264H25.2042L24.7342 23.159Z" fill="#5D362A"/>
<path d="M35.5719 32.0001L35.169 30.0193H30.1833L28.9747 32.0001H26.1377L33.2385 20.4676H36.042L36.0084 20.5011L38.3082 32.0001H35.5719ZM31.3752 28.0888H34.7997L33.9604 23.8753L31.3752 28.0888Z" fill="#5D362A"/>
<path d="M45.195 27.5348L45.6147 25.5876H50.7011L49.7107 30.3382C48.3509 31.5133 46.454 32.2016 44.8257 32.2016C41.9048 32.2016 39.6721 29.9689 39.6721 27.1991C39.6721 23.4556 43.2645 20.2661 47.0584 20.2661C48.8042 20.2661 50.3989 21.0719 51.3054 22.247L49.291 23.741C48.7874 22.952 47.8138 22.5156 46.8569 22.5156C44.406 22.5156 42.1734 24.7818 42.1734 27.132C42.1734 28.6931 43.4324 29.9521 45.0439 29.9521C45.8665 29.9521 46.7898 29.6164 47.5452 29.096L47.8473 27.5348H45.195Z" fill="#5D362A"/>
<path d="M62.6523 22.7002H56.2565L55.8033 25H61.578L61.1079 27.2327H55.2997L54.8128 29.7675H61.1919L60.7218 32.0001H51.8416L54.2421 20.4676H63.1224L62.6523 22.7002Z" fill="#5D362A"/>
<path d="M62.6964 32.0001L65.0969 20.4676H67.5478L71.5431 27.9209L73.121 20.4676H75.6055L73.205 32.0001H70.7709L66.7588 24.5468L65.1641 32.0001H62.6964Z" fill="#5D362A"/>
<path d="M78.5837 32.0001L80.5142 22.7002H76.9218L77.3919 20.4676H87.0611L86.5911 22.7002H82.9987L81.0682 32.0001H78.5837Z" fill="#5D362A"/>
<path d="M90.7319 32.2016C88.8518 32.2016 87.022 31.4294 85.9309 30.2375L87.5928 28.6428C88.4825 29.5828 89.7919 30.1032 90.9166 30.1032C92.4778 30.1032 93.3843 29.3142 93.3843 28.4413C93.3843 27.9041 92.8974 27.6859 91.353 27.2998C89.1036 26.7459 87.6935 26.1751 87.6935 24.3453C87.6935 22.012 89.7079 20.2661 92.6792 20.2661C94.2572 20.2661 95.8519 20.8704 96.8927 21.9112L95.3483 23.5899C94.4922 22.7674 93.3003 22.3645 92.4442 22.3645C91.0677 22.3645 90.2283 23.1367 90.2283 23.9928C90.2283 24.5468 90.7655 24.7818 92.2763 25.1511C94.8111 25.7386 95.9023 26.4437 95.9023 28.0888C95.9023 30.5397 93.6864 32.2016 90.7319 32.2016Z" fill="#5D362A"/>
<path d="M1.45068 15.2133L3.85121 3.68069H9.60911C11.4053 3.68069 12.6308 4.72147 12.6308 6.16514C12.6308 7.44095 11.7746 8.58246 10.4317 9.22036C11.3549 9.6736 11.9761 10.6137 11.9761 11.6377C11.9761 13.7696 9.92806 15.2133 7.59468 15.2133H1.45068ZM5.36203 8.33065H8.04793C9.15586 8.33065 10.012 7.59203 10.012 6.66875C10.012 6.11478 9.54196 5.79583 8.71941 5.79583H5.88242L5.36203 8.33065ZM4.35482 13.0981H7.41003C8.61868 13.0981 9.55875 12.2924 9.55875 11.2684C9.55875 10.6472 9.05514 10.2779 8.16544 10.2779H4.94236L4.35482 13.0981Z" fill="#5D362A"/>
<path d="M20.8049 15.2133L20.402 13.2324H15.4163L14.2077 15.2133H11.3707L18.4715 3.68069H21.2749L21.2414 3.71426L23.5412 15.2133H20.8049ZM16.6082 11.3019H20.0327L19.1934 7.08842L16.6082 11.3019Z" fill="#5D362A"/>
<path d="M25.1517 15.2133L27.0822 5.91332H23.4898L23.9598 3.68066H33.629L33.159 5.91332H29.5666L27.6361 15.2133H25.1517Z" fill="#5D362A"/>
<path d="M36.0883 15.2133L38.0188 5.91334H34.4264L34.8965 3.68069H44.5657L44.0957 5.91334H40.5033L38.5728 15.2133H36.0883Z" fill="#5D362A"/>
<path d="M46.5948 12.9806H52.3024L51.8323 15.2133H43.6068L46.0073 3.68069H48.4917L46.5948 12.9806Z" fill="#5D362A"/>
<path d="M63.7269 5.91334H57.3311L56.8778 8.21315H62.6525L62.1825 10.4458H56.3742L55.8874 12.9806H62.2664L61.7964 15.2133H52.9161L55.3167 3.68069H64.1969L63.7269 5.91334Z" fill="#5D362A"/>
<path fill-rule="evenodd" clip-rule="evenodd" d="M92.5202 0.637366C93.1268 1.3204 93.106 2.22332 92.4701 2.81594C91.9326 3.31713 91.7294 4.67917 92.2199 4.49371C92.3576 4.44176 93.1276 4.22952 93.9313 4.02232L94.9946 3.74812C95.2503 3.68218 95.5215 3.71509 95.754 3.84026L96.5084 4.24644C98.0867 5.0962 99.1828 6.12678 99.3431 6.9113C99.4166 7.27134 99.4728 8.82427 99.3767 10.5832L99.0048 13.3643C98.9908 13.4693 98.9609 13.5717 98.9162 13.6678L98.7362 14.0547C98.6848 14.1652 98.6158 14.2674 98.5229 14.3462C98.1686 14.647 97.6357 14.937 97.2571 15.0253C96.8263 15.1258 94.5117 15.2102 92.1134 15.2128C85.7581 15.2198 85.6733 15.1566 85.7952 10.4972C85.8558 8.17346 85.9173 7.7812 86.3243 7.12274C86.9168 6.16424 87.7378 5.66465 89.4172 5.24037L89.9905 5.09557C90.448 4.98002 90.7685 4.56847 90.7685 4.09662C90.7685 3.49071 90.6514 3.20175 90.2905 2.91622C89.349 2.17116 89.4951 0.725966 90.5683 0.169594C91.2228 -0.169706 91.9603 0.00709234 92.5202 0.637366ZM91.531 5.96026C88.3168 6.867 88.0687 6.98359 87.5555 7.83033C87.2412 8.34885 87.1665 8.84642 87.1659 10.4257C87.1651 12.596 87.3975 13.3552 88.1186 13.5372C88.6231 13.6647 93.6194 12.381 94.6188 11.8675C95.5331 11.3975 95.7733 10.649 95.7733 8.27133C95.7733 6.27459 95.7419 6.10625 95.2818 5.64371C95.0116 5.37187 94.6739 5.15781 94.5311 5.16829C94.3886 5.17856 93.0385 5.53497 91.531 5.96026ZM93.9303 8.82427C93.9303 10.2595 93.9303 10.2497 93.321 10.3478C93.0278 10.3818 92.7704 10.1526 92.7704 9.85742V9.0055C92.7704 7.57641 92.8561 7.41451 93.6301 7.38028C93.949 7.36619 93.9017 7.47541 93.9303 8.82427ZM90.1271 9.84862C90.1838 11.1366 90.1643 11.2016 89.6637 11.3931C89.2994 11.5324 88.961 11.3524 88.9584 10.9623C88.957 10.7422 88.9668 10.4665 88.9668 10.0975C88.9668 8.84219 89.0231 8.58747 89.3171 8.51135C89.9708 8.3418 90.0679 8.50209 90.1271 9.84862Z" fill="#5D362A"/>
<path fill-rule="evenodd" clip-rule="evenodd" d="M74.5618 0.637366C73.9553 1.3204 73.9761 2.22332 74.6119 2.81594C75.1494 3.31713 75.3526 4.67917 74.8621 4.49371C74.7244 4.44176 73.9545 4.22952 73.1507 4.02232L72.0874 3.74812C71.8317 3.68218 71.5606 3.71509 71.3281 3.84026L70.5736 4.24644C68.9953 5.0962 67.8993 6.12678 67.7389 6.9113C67.6655 7.27134 67.6502 8.92355 67.7053 10.5832L67.7917 13.1879C67.8005 13.4532 67.9095 13.7052 68.0967 13.8933L68.4236 14.2217C68.7635 14.5632 69.3941 14.9248 69.8249 15.0253C70.2557 15.1258 72.5703 15.2102 74.9686 15.2128C81.3239 15.2198 81.4088 15.1566 81.2869 10.4972C81.2262 8.17346 81.1647 7.7812 80.7578 7.12274C80.1652 6.16424 79.3442 5.66465 77.6648 5.24037L77.0915 5.09557C76.634 4.98002 76.3135 4.56847 76.3135 4.09662C76.3135 3.49071 76.4306 3.20175 76.7916 2.91622C77.7331 2.17116 77.5869 0.725966 76.5137 0.169594C75.8593 -0.169706 75.1218 0.00709233 74.5618 0.637366ZM75.551 5.96025C78.7653 6.867 79.0133 6.98359 79.5266 7.83033C79.8409 8.34885 79.9156 8.84642 79.9162 10.4257C79.917 12.596 79.6845 13.3552 78.9634 13.5372C78.459 13.6647 73.4626 12.381 72.4632 11.8675C71.549 11.3975 71.3087 10.649 71.3087 8.27132C71.3087 6.27459 71.3402 6.10625 71.8002 5.64371C72.0705 5.37187 72.4082 5.15781 72.5509 5.16829C72.6935 5.17856 74.0435 5.53497 75.551 5.96025ZM73.1517 8.82427C73.2091 10.2503 73.2234 10.2856 73.7611 10.3478C74.0543 10.3818 74.3116 10.1526 74.3116 9.85742V9.0055C74.3116 7.57641 74.2259 7.41451 73.452 7.38028C73.1331 7.36619 73.0994 7.52788 73.1517 8.82427ZM76.9549 9.84862C76.8983 11.1365 76.9177 11.2016 77.4184 11.3931C77.7582 11.5231 78.0627 11.3165 78.0866 10.9535C78.1024 10.7144 78.1152 10.4216 78.1152 10.0975C78.1152 8.84219 78.059 8.58747 77.7649 8.51135C77.1113 8.3418 77.0142 8.50209 76.9549 9.84862Z" fill="#5D362A"/>
</svg>
