<svg width="41" height="40" viewBox="0 0 41 40" fill="none" xmlns="http://www.w3.org/2000/svg">
<path fill-rule="evenodd" clip-rule="evenodd" d="M20.2162 5.21603C21.4938 6.68819 21.45 8.6343 20.1108 9.91159C18.9787 10.9918 18.5507 13.9275 19.5838 13.5278C19.8739 13.4158 21.4955 12.9584 23.1884 12.5118L23.6706 12.3845C25.3363 11.9449 27.1073 12.1635 28.6162 12.9948C31.9405 14.8263 34.249 17.0476 34.5867 18.7385C34.7414 19.5145 34.7735 23.0756 34.6575 26.6527L34.5072 31.29C34.4683 32.4908 33.9824 33.6337 33.1447 34.4949C32.4287 35.2309 31.1005 36.0104 30.1932 36.227C29.2858 36.4436 24.4107 36.6254 19.3594 36.6311C5.97394 36.6462 5.79516 36.51 6.05195 26.4674C6.1797 21.4589 6.30915 20.6134 7.16635 19.1942C8.41442 17.1283 10.1436 16.0515 13.6807 15.1371L14.8523 14.8343C15.8382 14.5794 16.5268 13.6901 16.5268 12.6719C16.5268 11.366 16.2802 10.7432 15.52 10.1277C13.537 8.52189 13.8448 5.40699 16.1052 4.20782C17.4836 3.47651 19.0369 3.85757 20.2162 5.21603ZM18.1329 16.6887C11.363 18.643 10.8406 18.8943 9.75946 20.7193C9.09748 21.8369 8.94021 22.9094 8.93894 26.3133C8.93725 30.9911 9.42678 32.6273 10.9455 33.0196C12.0081 33.2944 22.5315 30.5276 24.6363 29.4208C26.562 28.4078 27.0679 26.7946 27.0679 21.6698C27.0679 17.3662 27.0017 17.0033 26.0328 16.0064C25.4636 15.4205 24.7523 14.9591 24.4516 14.9817C24.1514 15.0038 21.3079 15.772 18.1329 16.6887ZM23.1863 22.8616C23.0653 25.9353 23.0353 26.0112 21.9028 26.1453C21.2858 26.2186 20.7433 25.7366 20.7433 25.1153V23.2522C20.7433 20.1721 20.9237 19.8231 22.5538 19.7493C23.2255 19.7189 23.2963 20.0675 23.1863 22.8616ZM15.1759 25.0694C15.2952 27.8454 15.2543 27.9856 14.1998 28.3983C13.4849 28.6781 12.8443 28.2447 12.7941 27.4786C12.76 26.9584 12.7321 26.3171 12.7321 25.6059C12.7321 22.9002 12.8505 22.3512 13.4699 22.1872C14.8466 21.8217 15.0511 22.1672 15.1759 25.0694Z" fill="#8A5136"/>
</svg>
