<svg width="256" height="226" viewBox="0 0 256 226" fill="none" xmlns="http://www.w3.org/2000/svg">
<g opacity="0.75" clip-path="url(#clip0_4251_26402)">
<path d="M114.54 86.9629H11.4453V163.826H114.54V86.9629Z" fill="#F0F0F0"/>
<path d="M114.54 86.9629H11.4453V96.5488H114.54V86.9629Z" fill="#B0C8AF"/>
<path d="M19.721 91.9785C19.721 93.1885 18.7472 94.1728 17.55 94.1728C16.3528 94.1728 15.3789 93.1885 15.3789 91.9785C15.3789 90.7685 16.3528 89.7842 17.55 89.7842C18.7472 89.7842 19.721 90.7685 19.721 91.9785Z" fill="#F2F2F2"/>
<path d="M27.0277 91.9785C27.0277 93.1885 26.0538 94.1728 24.8566 94.1728C23.6594 94.1728 22.6855 93.1885 22.6855 91.9785C22.6855 90.7685 23.6594 89.7842 24.8566 89.7842C26.0538 89.7842 27.0277 90.7685 27.0277 91.9785Z" fill="#F2F2F2"/>
<path d="M34.3363 91.9785C34.3363 93.1885 33.3624 94.1728 32.1652 94.1728C30.968 94.1728 29.9941 93.1885 29.9941 91.9785C29.9941 90.7685 30.968 89.7842 32.1652 89.7842C33.3624 89.7842 34.3363 90.7685 34.3363 91.9785Z" fill="#F2F2F2"/>
<path d="M80.591 117.458L75.4114 112.216L62.9929 124.768L50.5744 112.216L45.3887 117.458L57.8072 130.003L45.3887 142.554L50.5744 147.795L62.9929 135.244L75.4114 147.795L80.591 142.554L68.1725 130.003L80.591 117.458Z" fill="#C3D6C3"/>
<path d="M241.095 38.4814H138V115.345H241.095V38.4814Z" fill="#F0F0F0"/>
<path d="M241.095 38.4814H138V48.0674H241.095V38.4814Z" fill="#B0C8AF"/>
<path d="M146.276 43.497C146.276 44.707 145.302 45.6913 144.105 45.6913C142.907 45.6913 141.934 44.707 141.934 43.497C141.934 42.287 142.907 41.3027 144.105 41.3027C145.302 41.3027 146.276 42.287 146.276 43.497Z" fill="#F2F2F2"/>
<path d="M153.588 43.497C153.588 44.707 152.614 45.6913 151.417 45.6913C150.22 45.6913 149.246 44.707 149.246 43.497C149.246 42.287 150.22 41.3027 151.417 41.3027C152.614 41.3027 153.588 42.287 153.588 43.497Z" fill="#F2F2F2"/>
<path d="M160.897 43.497C160.897 44.707 159.923 45.6913 158.726 45.6913C157.529 45.6913 156.555 44.707 156.555 43.497C156.555 42.287 157.529 41.3027 158.726 41.3027C159.923 41.3027 160.897 42.287 160.897 43.497Z" fill="#F2F2F2"/>
<path d="M207.145 68.9757L201.966 63.7407L189.547 76.2858L177.129 63.7407L171.949 68.9757L184.362 81.5271L171.949 94.0784L177.129 99.3134L189.547 86.762L201.966 99.3134L207.145 94.0784L194.733 81.5271L207.145 68.9757Z" fill="#C3D6C3"/>
<path d="M127.379 226C196.982 226 253.406 221.071 253.406 214.991C253.406 208.911 196.982 203.982 127.379 203.982C57.776 203.982 1.35156 208.911 1.35156 214.991C1.35156 221.071 57.776 226 127.379 226Z" fill="#B0C8AF"/>
<path d="M96.643 39.7609C95.6815 37.7296 95.7311 35.761 96.7918 33.8488L97.3067 32.9398C97.8091 32.1122 98.1317 31.4727 98.2743 31.0213C98.417 30.5762 98.3736 30.1248 98.1627 29.6609C97.6168 28.5073 96.3886 28.3882 94.4719 29.3098C93.5848 29.7361 92.7226 30.3004 91.8914 30.9963C91.0602 31.6922 90.322 32.4633 89.6769 33.3097L87.5059 28.7079C88.9264 26.9964 90.7563 25.5983 93.008 24.5137C95.4334 23.3413 97.5982 22.9275 99.5026 23.2723C101.407 23.6172 102.784 24.6892 103.64 26.5074C104.118 27.523 104.279 28.4571 104.124 29.3035C103.969 30.1499 103.528 31.222 102.809 32.526C102.331 33.4163 101.996 34.0871 101.798 34.5385C101.599 34.9899 101.5 35.435 101.5 35.8739C101.5 36.3127 101.624 36.7955 101.872 37.3096L102.139 37.8801L96.9345 40.3878L96.6367 39.7609H96.643ZM100.632 46.6259C99.8623 46.3501 99.2917 45.8234 98.9257 45.046C98.5473 44.2498 98.4977 43.4661 98.7768 42.695C99.0559 41.9239 99.5894 41.3471 100.377 40.9709C101.146 40.601 101.928 40.5509 102.716 40.8142C103.51 41.0838 104.087 41.6041 104.453 42.3815C104.819 43.1589 104.856 43.9426 104.564 44.7326C104.273 45.5225 103.739 46.0993 102.97 46.4755C102.182 46.8579 101.401 46.908 100.632 46.6322V46.6259Z" fill="#C3D6C3"/>
<path d="M121.919 22.2002C123.216 19.0718 125.455 17.1534 128.637 16.4449L130.163 16.1189C131.59 15.8556 132.626 15.586 133.259 15.2976C133.898 15.0092 134.363 14.5139 134.654 13.8055C135.392 12.025 134.288 10.5141 131.342 9.26644C129.977 8.68965 128.488 8.27587 126.882 8.02509C125.275 7.77432 123.675 7.71162 122.093 7.83701L125.027 0.752568C128.352 0.645988 131.745 1.32309 135.206 2.79013C138.941 4.37002 141.571 6.41385 143.097 8.91535C144.629 11.4168 144.815 14.0688 143.655 16.8587C143.004 18.4198 142.135 19.542 141.037 20.2128C139.939 20.8837 138.308 21.4605 136.143 21.9557C134.679 22.3068 133.594 22.5952 132.893 22.8272C132.192 23.0529 131.602 23.3852 131.112 23.8303C130.622 24.2754 130.219 24.8961 129.884 25.6923L129.524 26.57L121.516 23.1783L121.919 22.2128V22.2002ZM118.284 33.6106C117.819 32.457 117.832 31.2846 118.328 30.0872C118.837 28.8584 119.655 28.0183 120.79 27.5606C121.926 27.1029 123.098 27.1343 124.314 27.6484C125.499 28.1499 126.336 28.9838 126.838 30.1499C127.335 31.316 127.335 32.4946 126.838 33.6921C126.342 34.8895 125.511 35.7171 124.339 36.1748C123.166 36.6324 121.988 36.6136 120.809 36.1121C119.593 35.598 118.756 34.7642 118.291 33.6106H118.284Z" fill="#C3D6C3"/>
<path d="M251.881 135.024V131.426H249.512V135.024H245.951V137.419H249.512V141.018H251.881V137.419H255.442V135.024H251.881Z" fill="#C3D6C3"/>
<path d="M229.521 19.8113V14.3193H225.904V19.8113H220.477V23.4601H225.904V28.9522H229.521V23.4601H234.948V19.8113H229.521Z" fill="#C3D6C3"/>
<path d="M219.675 126.065V123.445H217.95V126.065H215.357V127.808H217.95V130.429H219.675V127.808H222.268V126.065H219.675Z" fill="#C3D6C3"/>
<path d="M71.7763 34.8892V32.2686H70.0519V34.8892H67.459V36.6321H70.0519V39.2527H71.7763V36.6321H74.3692V34.8892H71.7763Z" fill="#C3D6C3"/>
<path d="M51.7836 17.5542V13.9556H49.4141V17.5542H45.8535V19.9429H49.4141V23.5415H51.7836V19.9429H55.3442V17.5542H51.7836Z" fill="#C3D6C3"/>
<path d="M168.728 24.9019C168.728 25.6605 168.12 26.2686 167.376 26.2686C166.631 26.2686 166.023 25.6542 166.023 24.9019C166.023 24.1496 166.631 23.5352 167.376 23.5352C168.12 23.5352 168.728 24.1496 168.728 24.9019Z" fill="#C3D6C3"/>
<path d="M174.275 1.36673C174.275 2.12533 173.667 2.73347 172.923 2.73347C172.178 2.73347 171.57 2.11906 171.57 1.36673C171.57 0.614403 172.178 0 172.923 0C173.667 0 174.275 0.614403 174.275 1.36673Z" fill="#C3D6C3"/>
<path d="M200.73 15.2098C202.145 15.2098 203.292 14.0505 203.292 12.6205C203.292 11.1905 202.145 10.0312 200.73 10.0312C199.315 10.0312 198.168 11.1905 198.168 12.6205C198.168 14.0505 199.315 15.2098 200.73 15.2098Z" fill="#C3D6C3"/>
<path d="M254.759 109.978C254.759 110.737 254.151 111.345 253.407 111.345C252.663 111.345 252.055 110.73 252.055 109.978C252.055 109.226 252.663 108.611 253.407 108.611C254.151 108.611 254.759 109.226 254.759 109.978Z" fill="#C3D6C3"/>
<path d="M253.4 152.717C253.4 153.475 252.792 154.084 252.048 154.084C251.303 154.084 250.695 153.469 250.695 152.717C250.695 151.964 251.303 151.35 252.048 151.35C252.792 151.35 253.4 151.964 253.4 152.717Z" fill="#C3D6C3"/>
<path d="M47.2104 77.9727C47.2104 78.7313 46.6025 79.3394 45.8581 79.3394C45.1138 79.3394 44.5059 78.725 44.5059 77.9727C44.5059 77.2204 45.1138 76.606 45.8581 76.606C46.6025 76.606 47.2104 77.2204 47.2104 77.9727Z" fill="#C3D6C3"/>
<path d="M23.64 23.7923C25.0549 23.7923 26.2018 22.6331 26.2018 21.203C26.2018 19.773 25.0549 18.6138 23.64 18.6138C22.2251 18.6138 21.0781 19.773 21.0781 21.203C21.0781 22.6331 22.2251 23.7923 23.64 23.7923Z" fill="#C3D6C3"/>
<path d="M74.2065 6.58304C74.2065 7.34164 73.5986 7.94978 72.8542 7.94978C72.1099 7.94978 71.502 7.33537 71.502 6.58304C71.502 5.83071 72.1099 5.21631 72.8542 5.21631C73.5986 5.21631 74.2065 5.83071 74.2065 6.58304Z" fill="#C3D6C3"/>
<path d="M2.71039 88.6621C2.71039 89.4207 2.10249 90.0289 1.35812 90.0289C0.613759 90.0289 0.00585938 89.4145 0.00585938 88.6621C0.00585938 87.9098 0.613759 87.2954 1.35812 87.2954C2.10249 87.2954 2.71039 87.9098 2.71039 88.6621Z" fill="#C3D6C3"/>
<path d="M2.71039 161.607C2.71039 162.366 2.10249 162.974 1.35812 162.974C0.613759 162.974 0.00585938 162.359 0.00585938 161.607C0.00585938 160.855 0.613759 160.24 1.35812 160.24C2.10249 160.24 2.71039 160.855 2.71039 161.607Z" fill="#C3D6C3"/>
<path d="M200.16 202.822C200.16 202.822 177.717 157.475 238.588 127.382C238.588 127.382 243.253 192.001 200.16 202.822Z" fill="#FFA500"/>
<path d="M202.746 197.048C202.734 190.565 204.074 184.126 205.916 177.913C206.152 177.136 206.363 176.352 206.623 175.581L207.448 173.287L208.273 170.992L209.21 168.741C210.413 165.719 211.92 162.842 213.347 159.926L215.773 155.707C216.554 154.284 217.441 152.93 218.347 151.582C219.259 150.24 220.121 148.867 221.07 147.563C222.038 146.265 223.024 144.98 224.01 143.701L225.493 141.783L227.087 139.958L230.294 136.335C230.821 135.727 231.404 135.169 231.975 134.604L233.699 132.912C234.853 131.789 236.013 130.68 237.186 129.583C236.181 130.843 235.17 132.09 234.146 133.325L232.608 135.169C232.093 135.783 231.572 136.385 231.107 137.043L228.204 140.867L226.74 142.767L225.381 144.742C224.482 146.059 223.57 147.375 222.652 148.673C221.759 149.996 220.952 151.375 220.102 152.717C218.334 155.369 216.877 158.215 215.289 160.973C212.324 166.616 209.706 172.44 207.541 178.446C205.42 184.465 203.639 190.64 202.746 197.035V197.048Z" fill="#CE7F00"/>
<path opacity="0.1" d="M236.312 126.931C235.462 142.523 230.171 183.97 198.25 193.355C199.404 198.063 200.799 200.885 200.799 200.885C243.892 190.057 239.227 125.445 239.227 125.445C238.235 125.934 237.261 126.435 236.312 126.931Z" fill="#FFA500"/>
<path d="M194.67 217.417C194.67 217.417 197.865 203.612 211.22 186.879C225.853 168.547 244.939 161.952 252.861 170.76C260.553 179.312 254.015 191.13 234.208 197.167C214.402 203.205 203.205 205.806 194.67 217.417Z" fill="#6AA65B"/>
<path d="M246.589 175.562C242.054 177.374 237.669 179.475 233.358 181.7C229.059 183.951 224.866 186.39 220.859 189.117C216.839 191.819 213.018 194.81 209.47 198.114C205.934 201.43 202.696 205.079 199.898 209.116C201.027 206.928 202.361 204.853 203.8 202.847C205.289 200.885 206.871 198.973 208.601 197.217C212.038 193.669 215.902 190.559 219.972 187.788C222.025 186.427 224.109 185.13 226.249 183.92C228.401 182.735 230.579 181.6 232.812 180.584C237.259 178.528 241.856 176.791 246.583 175.569L246.589 175.562Z" fill="#1D3B1C"/>
<path opacity="0.1" d="M252.861 170.76C252.433 170.284 251.961 169.857 251.471 169.469C245.045 185.374 226.274 196.891 204.099 196.916C196.674 208.791 194.67 217.411 194.67 217.411C203.205 205.8 214.402 203.198 234.208 197.161C254.015 191.123 260.546 179.305 252.861 170.754V170.76Z" fill="#0046A0"/>
<path d="M79.7151 209.662C79.7151 209.662 33.614 229.655 7.44336 166.484C7.44336 166.484 71.5395 165.55 79.7151 209.662Z" fill="#FFA500"/>
<path d="M76.0313 207.474C69.6297 207.11 63.346 205.38 57.3167 203.154C56.5661 202.872 55.7969 202.609 55.0525 202.301L52.8381 201.336L50.6236 200.364L48.4587 199.292C45.5433 197.9 42.7891 196.208 39.9915 194.603L35.9657 191.907C34.6073 191.035 33.317 190.057 32.0454 189.073C30.7738 188.076 29.4711 187.123 28.2305 186.089C27.0085 185.035 25.7927 183.97 24.5893 182.898L22.7843 181.293L21.0722 179.581L17.6791 176.133C17.1085 175.569 16.5936 174.948 16.0664 174.334L14.497 172.497C13.4549 171.268 12.4314 170.027 11.4141 168.785C12.5988 169.876 13.7774 170.967 14.9374 172.07L16.668 173.732C17.2449 174.283 17.8094 174.848 18.4297 175.356L22.0337 178.503L23.8202 180.089L25.6873 181.575C26.9341 182.559 28.1809 183.556 29.4091 184.559C30.6621 185.537 31.9772 186.427 33.255 187.368C35.7735 189.311 38.4966 190.941 41.1267 192.709C46.5233 196.032 52.1247 199.01 57.9308 201.543C63.7492 204.032 69.7476 206.189 76.0127 207.467L76.0313 207.474Z" fill="#CE7F00"/>
<path opacity="0.1" d="M8.7398 169.513C24.0924 171.287 64.7224 179.042 72.1288 211.794C76.8431 210.91 79.7151 209.662 79.7151 209.662C71.5395 165.55 7.44336 166.484 7.44336 166.484C7.87137 167.519 8.30558 168.522 8.7398 169.513Z" fill="#0046A0"/>
<path d="M60.7516 192.64C60.7516 192.64 60.5282 178.459 50.9818 159.249C40.5234 138.197 23.2603 127.664 13.6704 134.579C4.35961 141.287 8.26753 154.234 26.3556 164.384C44.4437 174.528 54.8463 179.468 60.7516 192.647V192.64Z" fill="#6AA65B"/>
<path d="M18.7949 140.61C22.8455 143.35 26.6914 146.347 30.4381 149.444C34.1661 152.566 37.7577 155.845 41.0949 159.368C44.457 162.867 47.5647 166.61 50.3374 170.597C53.0978 174.597 55.4922 178.854 57.3841 183.405C56.739 181.029 55.8706 178.71 54.8843 176.44C53.8422 174.202 52.7008 171.995 51.3734 169.907C48.7619 165.701 45.6355 161.832 42.2425 158.259C40.5242 156.491 38.7563 154.773 36.914 153.137C35.0593 151.519 33.1674 149.939 31.201 148.472C27.2869 145.507 23.1557 142.823 18.7949 140.617V140.61Z" fill="#1D3B1C"/>
<path opacity="0.1" d="M13.67 134.573C14.1911 134.197 14.737 133.883 15.3015 133.614C18.2417 150.535 34.1773 165.814 55.8446 170.591C60.6147 183.788 60.7574 192.64 60.7574 192.64C54.8521 179.462 44.4558 174.522 26.3615 164.378C8.27339 154.234 4.36547 141.288 13.6763 134.573H13.67Z" fill="#0046A0"/>
<path d="M188.45 206.37C187.947 209.725 184.616 212.471 181.037 212.471H75.2811C71.7082 212.471 68.3337 209.731 67.7878 206.383L50.2766 99.0505C49.7308 95.7026 52.2058 92.9629 55.7849 92.9629H198.914C202.487 92.9629 205.006 95.7089 204.503 99.063L188.456 206.37H188.45Z" fill="#1D3B1C"/>
<path d="M161.907 57.0957H72.8555V183.895H181.756V77.4525L161.907 57.0957Z" fill="#F0F0F0"/>
<path d="M161.906 57.0957L181.905 77.302H161.906V57.0957Z" fill="#B0C8AF"/>
<path d="M157.533 97.1951L148.656 88.2173L127.38 109.721L106.103 88.2173L97.2207 97.1951L118.497 118.693L97.2207 140.197L106.103 149.175L127.38 127.671L148.656 149.175L157.533 140.197L136.257 118.693L157.533 97.1951Z" fill="#C3D6C3"/>
<path d="M137.714 129.79C134.904 129.79 131.933 127.577 131.102 124.862L127.02 111.489C126.195 108.775 123.218 106.555 120.408 106.555H47.8692C45.0593 106.555 43.1673 108.844 43.6574 111.633L61.3671 212.483C61.8571 215.279 64.5554 217.561 67.3654 217.561H193.033C195.843 217.561 198.498 215.267 198.938 212.464L211.121 134.768C211.562 131.965 209.62 129.677 206.816 129.677L137.72 129.777L137.714 129.79Z" fill="#6AA65B"/>
<path d="M120.041 177.055C120.041 173.13 121.585 170.071 124.668 167.876L126.151 166.835C127.559 165.914 128.539 165.155 129.091 164.553C129.643 163.958 129.922 163.218 129.922 162.334C129.922 160.102 128.074 158.986 124.383 158.986C122.671 158.986 120.897 159.218 119.073 159.682C117.249 160.146 115.513 160.798 113.875 161.644V152.754C117.38 151.137 121.3 150.328 125.642 150.328C130.325 150.328 134.041 151.319 136.777 153.3C139.518 155.281 140.889 158.021 140.889 161.525C140.889 163.488 140.449 165.074 139.574 166.29C138.7 167.5 137.211 168.861 135.12 170.359C133.712 171.4 132.683 172.196 132.038 172.754C131.392 173.312 130.902 173.939 130.58 174.628C130.257 175.324 130.096 176.171 130.096 177.168V178.265H120.041V177.055ZM121.213 190.879C120.202 189.857 119.7 188.597 119.7 187.098C119.7 185.6 120.202 184.29 121.213 183.286C122.218 182.283 123.49 181.788 125.009 181.788C126.529 181.788 127.764 182.296 128.806 183.318C129.854 184.34 130.375 185.6 130.375 187.098C130.375 188.597 129.848 189.857 128.806 190.879C127.757 191.901 126.492 192.408 125.009 192.408C123.527 192.408 122.218 191.901 121.213 190.879Z" fill="white"/>
<path opacity="0.1" d="M206.81 129.683L198.951 129.696C199.124 131.526 199.218 133.37 199.218 135.232C199.218 176.879 155.114 210.646 100.707 210.646C86.1297 210.646 72.2968 208.22 59.8535 203.875L61.3671 212.49C61.8571 215.286 64.5554 217.568 67.3654 217.568H193.033C195.843 217.568 198.498 215.273 198.938 212.471L211.121 134.774C211.562 131.971 209.62 129.683 206.816 129.683H206.81Z" fill="#0046A0"/>
<g opacity="0.3">
<path d="M55.8455 121.527C56.2177 124.06 56.5898 126.592 56.9682 129.119C57.8553 135.144 58.7485 141.169 59.6355 147.194C60.7149 154.529 61.8004 161.864 62.8859 169.199C63.8164 175.5 64.7469 181.795 65.6711 188.095C65.9813 190.189 66.2914 192.283 66.5954 194.371C66.738 195.355 66.8249 196.371 67.0358 197.343C67.042 197.387 67.0482 197.431 67.0544 197.468C67.1847 198.333 68.2578 198.804 69.0146 198.597C69.9264 198.346 70.2552 197.481 70.1311 196.615C69.7589 194.083 69.3867 191.55 69.0084 189.023C68.1213 182.998 67.2281 176.973 66.341 170.949C65.2555 163.613 64.1762 156.278 63.0906 148.943C62.1602 142.642 61.2297 136.348 60.3055 130.047C59.9953 127.953 59.6852 125.859 59.3812 123.771C59.2386 122.787 59.1517 121.771 58.9408 120.799C58.9346 120.756 58.9284 120.712 58.9222 120.674C58.7919 119.809 57.7188 119.339 56.962 119.546C56.0502 119.796 55.7214 120.661 55.8455 121.527Z" fill="white"/>
</g>
<path d="M230.978 65.6909C221.171 65.6909 213.225 73.7283 213.225 83.634C213.225 88.0665 214.813 92.1165 217.449 95.245L216.705 104.486L225.19 100.599C227.008 101.232 228.956 101.583 230.984 101.583C240.791 101.583 248.737 93.5459 248.737 83.6403C248.737 73.7346 240.785 65.6972 230.984 65.6972L230.978 65.6909Z" fill="#FF6347"/>
<path d="M229.749 92.8248C229.426 92.4988 229.265 92.0913 229.265 91.6085C229.265 91.1258 229.426 90.7183 229.749 90.3923C230.072 90.0663 230.475 89.897 230.952 89.897C231.43 89.897 231.833 90.06 232.168 90.3923C232.503 90.7183 232.671 91.1258 232.671 91.6085C232.671 92.0913 232.503 92.4988 232.168 92.8248C231.833 93.1508 231.43 93.3201 230.952 93.3201C230.475 93.3201 230.072 93.1571 229.749 92.8248ZM228.744 72.6436H233.217L232.385 87.0946H229.575L228.744 72.6436Z" fill="#F2F2F2"/>
<path opacity="0.1" d="M221.251 93.1449C219.322 93.1449 217.442 92.9756 215.631 92.6496C216.164 93.5712 216.772 94.4364 217.448 95.2451L216.704 104.486L225.19 100.599C227.007 101.232 228.955 101.584 230.983 101.584C240.79 101.584 248.737 93.5461 248.737 83.6404C248.737 81.2393 248.265 78.9509 247.422 76.8569C243.867 86.3112 233.502 93.1512 221.257 93.1512L221.251 93.1449Z" fill="#0046A0"/>
<path d="M49.0668 60.8384V43.8232C49.0668 41.7794 47.4105 40.1055 45.3884 40.1055H14.7018C12.6797 40.1055 11.0234 41.7794 11.0234 43.8232V65.2646C11.0234 67.3085 12.6797 68.9824 14.7018 68.9824H57.9185L49.0668 60.8384Z" fill="#FFA500"/>
<path d="M24.9179 52.1492C24.9179 53.7792 23.9812 55.1021 22.8212 55.1021C21.6613 55.1021 20.7246 53.7792 20.7246 52.1492C20.7246 50.5191 21.6613 49.1963 22.8212 49.1963C23.9812 49.1963 24.9179 50.5191 24.9179 52.1492Z" fill="white"/>
<path d="M38.8495 52.1492C38.8495 53.7792 37.9129 55.1021 36.7529 55.1021C35.5929 55.1021 34.6562 53.7792 34.6562 52.1492C34.6562 50.5191 35.5929 49.1963 36.7529 49.1963C37.9129 49.1963 38.8495 50.5191 38.8495 52.1492Z" fill="white"/>
<path d="M24.979 60.4187C25.6986 59.6225 26.6973 58.9955 27.6898 58.6382C30.2082 57.7228 32.6398 58.6821 34.5565 60.4187C35.0714 60.8826 35.8282 60.1178 35.3133 59.6538C33.1857 57.7228 30.4315 56.5881 27.6029 57.5222C26.3623 57.9297 25.1031 58.6695 24.216 59.6538C23.7508 60.1679 24.5076 60.939 24.9728 60.4187H24.979Z" fill="white"/>
<path opacity="0.1" d="M49.0669 60.8384V43.8232C49.0669 41.7794 47.4107 40.1055 45.3885 40.1055H42.2436C42.7894 42.1242 43.081 44.2245 43.081 46.3749C43.081 55.4154 38.0007 63.5092 29.9863 68.9824H57.9187L49.0669 60.8384Z" fill="#0046A0"/>
<path d="M155.101 156.14C145.263 166.083 145.263 182.215 155.101 192.158C164.939 202.101 180.9 202.101 190.738 192.158C200.576 182.215 200.576 166.083 190.738 156.14C180.9 146.197 164.939 146.197 155.101 156.14ZM187.847 189.236C179.603 197.568 166.236 197.568 157.986 189.236C149.742 180.904 149.742 167.394 157.986 159.055C166.229 150.723 179.597 150.723 187.847 159.055C196.091 167.387 196.091 180.898 187.847 189.236Z" fill="#EB725F"/>
<path opacity="0.3" d="M172.922 195.487C184.583 195.487 194.037 185.932 194.037 174.146C194.037 162.359 184.583 152.805 172.922 152.805C161.26 152.805 151.807 162.359 151.807 174.146C151.807 185.932 161.26 195.487 172.922 195.487Z" fill="white"/>
<path d="M190.062 188.281L186.904 191.473L215.476 220.351L218.634 217.159L190.062 188.281Z" fill="#6E7FDD"/>
<path d="M190.066 188.283L186.908 191.475L197.431 202.11L200.589 198.918L190.066 188.283Z" fill="#FF6347"/>
<path d="M160.629 165.375C161.429 163.036 163.185 161.149 165.3 159.839C167.427 158.535 169.946 157.839 172.471 157.839C174.995 157.833 177.52 158.529 179.647 159.833C181.763 161.143 183.518 163.036 184.312 165.375C182.005 164.585 180.051 163.964 178.109 163.582C176.186 163.187 174.331 163.005 172.471 162.999C170.61 162.999 168.749 163.18 166.826 163.575C164.884 163.958 162.93 164.585 160.629 165.375Z" fill="white"/>
</g>
<defs>
<clipPath id="clip0_4251_26402">
<rect width="256" height="226" fill="white"/>
</clipPath>
</defs>
</svg>
