<svg width="122" height="128" viewBox="0 0 61 64" fill="none" xmlns="http://www.w3.org/2000/svg">
<g clip-path="url(#clip0_7218_37062)">
<path d="M8.13452 40.9214L5.98135 40.9628L4.89097 40.979C4.52654 40.9864 4.16066 40.9849 3.79478 40.9878H3.73089V40.9214L3.72363 39.0572V38.9834H3.79623L5.96683 38.9923C6.68988 38.9923 7.41438 39.0085 8.13743 39.0159H8.17808V39.0557C8.17518 39.3716 8.16501 39.686 8.1592 39.9974L8.13888 40.9214H8.13452ZM8.13452 40.9214L8.1142 39.9797C8.10694 39.6698 8.09823 39.3613 8.09532 39.0557L8.13452 39.0956C7.41147 39.103 6.68697 39.1192 5.96392 39.1192L3.79332 39.1281L3.86592 39.0542L3.85866 40.9185L3.79332 40.8521C4.15195 40.855 4.50911 40.8521 4.86773 40.8609L5.9465 40.8771L8.13307 40.9185L8.13452 40.9214Z" fill="#FDF6EF"/>
<path d="M5.7146 43.2725L3.56142 43.3138L2.47104 43.3301C2.10661 43.3375 1.74073 43.336 1.37485 43.3389H1.31097V43.2725L1.30371 41.4083V41.3345H1.37631L3.54691 41.3433C4.26995 41.3433 4.99446 41.3596 5.7175 41.3669H5.75816V41.4068C5.75525 41.7227 5.74509 42.0371 5.73928 42.3485L5.71896 43.2725H5.7146ZM5.7146 43.2725L5.69427 42.3308C5.68701 42.0208 5.6783 41.7123 5.6754 41.4068L5.7146 41.4467C4.99155 41.454 4.26705 41.4703 3.544 41.4703L1.3734 41.4791L1.446 41.4053L1.43874 43.2696L1.3734 43.2031C1.73202 43.2061 2.08919 43.2031 2.44781 43.2105L3.52658 43.2267L5.71315 43.2681L5.7146 43.2725Z" fill="#FDF6EF"/>
<path d="M5.7146 2.92387L3.56142 2.9652L2.47104 2.98144C2.10661 2.98882 1.74073 2.98734 1.37485 2.99029H1.31097V2.92387L1.30371 1.05964V0.98584H1.37631L3.54691 0.994696C4.26995 0.994696 4.99446 1.01093 5.7175 1.01831H5.75816V1.05817C5.75525 1.37404 5.74509 1.68843 5.73928 1.99987L5.71896 2.92387H5.7146ZM5.7146 2.92387L5.69427 1.98216C5.68701 1.67219 5.6783 1.3637 5.6754 1.05817L5.7146 1.09802C4.99155 1.1054 4.26705 1.12163 3.544 1.12163L1.3734 1.13049L1.446 1.05669L1.43874 2.92092L1.3734 2.8545C1.73202 2.85745 2.08919 2.8545 2.44781 2.86188L3.52658 2.87811L5.71315 2.91944L5.7146 2.92387Z" fill="#FDF6EF"/>
<path d="M60.5925 2.92387L58.4394 2.9652L57.349 2.98144C56.9845 2.98882 56.6187 2.98734 56.2528 2.99029H56.1889V2.92387L56.1816 1.05964V0.98584H56.2542L58.4248 0.994696C59.1479 0.994696 59.8724 1.01093 60.5954 1.01831H60.6361V1.05817C60.6332 1.37404 60.623 1.68843 60.6172 1.99987L60.5969 2.92387H60.5925ZM60.5925 2.92387L60.5722 1.98216C60.5649 1.67219 60.5562 1.3637 60.5533 1.05817L60.5925 1.09802C59.8695 1.1054 59.145 1.12163 58.4219 1.12163L56.2513 1.13049L56.3239 1.05669L56.3167 2.92092L56.2513 2.8545C56.61 2.85745 56.9671 2.8545 57.3257 2.86188L58.4045 2.87811L60.5911 2.91944L60.5925 2.92387Z" fill="#FDF6EF"/>
<path d="M58.1716 5.27496L56.0185 5.31628L54.9281 5.33252C54.5636 5.3399 54.1978 5.33842 53.8319 5.3399H53.768V5.27348L53.7607 3.40925V3.33545H53.8333L56.0039 3.34431C56.727 3.34431 57.4515 3.36054 58.1745 3.36792H58.2152V3.40778C58.2123 3.72365 58.2021 4.03804 58.1963 4.34948L58.176 5.27348L58.1716 5.27496ZM58.1716 5.27496L58.1513 4.33325C58.144 4.02328 58.1353 3.71479 58.1324 3.40925L58.1716 3.4491C57.4486 3.45648 56.7241 3.47272 56.001 3.47272L53.8304 3.48158L53.903 3.40778L53.8958 5.272L53.8304 5.20558C54.1891 5.20853 54.5462 5.20558 54.9048 5.21444L55.9836 5.23067L58.1702 5.272L58.1716 5.27496Z" fill="#FDF6EF"/>
<path d="M47.0544 27.0894L44.9013 27.1307L43.8109 27.147C43.4465 27.1543 43.0806 27.1529 42.7147 27.1558H42.6508V27.0894L42.6436 25.2252V25.1514H42.7161L44.8868 25.1602C45.6098 25.1602 46.3343 25.1765 47.0573 25.1838H47.098V25.2237C47.0951 25.5396 47.0849 25.854 47.0791 26.1654L47.0588 27.0894H47.0544ZM47.0544 27.0894L47.0341 26.1477C47.0269 25.8377 47.0181 25.5292 47.0152 25.2237L47.0544 25.2635C46.3314 25.2709 45.6069 25.2872 44.8838 25.2872L42.7132 25.296L42.7858 25.2222L42.7786 27.0864L42.7132 27.02C43.0719 27.023 43.429 27.02 43.7877 27.0274L44.8664 27.0436L47.053 27.085L47.0544 27.0894Z" fill="#FDF6EF"/>
<path d="M44.6326 29.441L42.4794 29.4823L41.389 29.4985C41.0246 29.5059 40.6587 29.5044 40.2928 29.5074H40.2289V29.441L40.2217 27.5767V27.5029H40.2943L42.4649 27.5118C43.1879 27.5118 43.9124 27.528 44.6355 27.5354H44.6761V27.5753C44.6732 27.8911 44.6631 28.2055 44.6572 28.517L44.6369 29.441H44.6326ZM44.6326 29.441L44.6122 28.4993C44.605 28.1893 44.5963 27.8808 44.5934 27.5753L44.6326 27.6151C43.9095 27.6225 43.185 27.6387 42.462 27.6387L40.2914 27.6476L40.364 27.5738L40.3567 29.438L40.2914 29.3716C40.65 29.3745 41.0072 29.3716 41.3658 29.3804L42.4445 29.3967L44.6311 29.438L44.6326 29.441Z" fill="#FDF6EF"/>
<path d="M42.2214 27.0894L40.0683 27.1307L38.9779 27.147C38.6135 27.1543 38.2476 27.1529 37.8817 27.1558H37.8178V27.0894L37.8105 25.2252V25.1514H37.8831L40.0537 25.1602C40.7768 25.1602 41.5013 25.1765 42.2243 25.1838H42.265V25.2237C42.2621 25.5396 42.2519 25.854 42.2461 26.1654L42.2258 27.0894H42.2214ZM42.2214 27.0894L42.2011 26.1477C42.1939 25.8377 42.1851 25.5292 42.1822 25.2237L42.2214 25.2635C41.4984 25.2709 40.7739 25.2872 40.0508 25.2872L37.8802 25.296L37.9528 25.2222L37.9456 27.0864L37.8802 27.02C38.2389 27.023 38.596 27.02 38.9546 27.0274L40.0334 27.0436L42.22 27.085L42.2214 27.0894Z" fill="#FDF6EF"/>
<path d="M60.5925 43.2725L58.4394 43.3138L57.349 43.3301C56.9845 43.3375 56.6187 43.336 56.2528 43.3389H56.1889V43.2725L56.1816 41.4083V41.3345H56.2542L58.4248 41.3433C59.1479 41.3433 59.8724 41.3596 60.5954 41.3669H60.6361V41.4068C60.6332 41.7227 60.623 42.0371 60.6172 42.3485L60.5969 43.2725H60.5925ZM60.5925 43.2725L60.5722 42.3308C60.5649 42.0208 60.5562 41.7123 60.5533 41.4068L60.5925 41.4467C59.8695 41.454 59.145 41.4703 58.4219 41.4703L56.2513 41.4791L56.3239 41.4053L56.3167 43.2696L56.2513 43.2031C56.61 43.2061 56.9671 43.2031 57.3257 43.2105L58.4045 43.2267L60.5911 43.2681L60.5925 43.2725Z" fill="#FDF6EF"/>
<path d="M23.7126 8.46929L21.5595 8.51062L20.4691 8.52686C20.1047 8.53424 19.7388 8.53276 19.3729 8.53424H19.309V8.46782L19.3018 6.60359V6.52979H19.3744L21.545 6.53864C22.268 6.53864 22.9925 6.55488 23.7156 6.56226H23.7562V6.60211C23.7533 6.91798 23.7431 7.23238 23.7373 7.54382L23.717 8.46782L23.7126 8.46929ZM23.7126 8.46929L23.6923 7.52758C23.6851 7.21762 23.6763 6.90913 23.6734 6.60359L23.7126 6.64344C22.9896 6.65082 22.2651 6.66706 21.542 6.66706L19.3714 6.67591L19.444 6.60211L19.4368 8.46634L19.3714 8.39992C19.7301 8.40287 20.0872 8.39992 20.4459 8.4073L21.5246 8.42353L23.7112 8.46486L23.7126 8.46929Z" fill="#FDF6EF"/>
<path d="M58.8973 16.1602L59.7524 14.7595L59.3299 14.4938C59.2065 14.4155 59.1383 14.2724 59.1514 14.1248C59.1586 14.0436 59.1615 13.9609 59.1586 13.8783C59.1557 13.7307 59.2312 13.5919 59.3604 13.5225L59.7975 13.2834L59.0309 11.8295L58.5938 12.0686C58.4661 12.138 58.3107 12.1262 58.1917 12.0421C58.1249 11.9948 58.0566 11.952 57.9855 11.9122C57.8577 11.8413 57.7779 11.7055 57.7822 11.5565L57.7982 11.0517L56.1779 11L56.1633 11.5063C56.159 11.6554 56.069 11.7838 55.9368 11.8472C55.9005 11.865 55.8657 11.8827 55.8309 11.9019C55.796 11.921 55.7612 11.9417 55.7278 11.9624C55.6029 12.0391 55.449 12.0436 55.3256 11.9653L54.9002 11.6982L54.045 13.0989L54.4675 13.3661C54.5909 13.4443 54.6592 13.5875 54.6461 13.7351C54.6388 13.8163 54.6359 13.8989 54.6388 13.9801C54.6417 14.1277 54.5662 14.265 54.437 14.3358L54 14.5749L54.7666 16.0288L55.2036 15.7897C55.3314 15.7203 55.4868 15.7322 55.6058 15.8163C55.6726 15.8635 55.7408 15.9063 55.812 15.9447C55.9397 16.0156 56.0196 16.1514 56.0152 16.3004L55.9993 16.8067L57.6196 16.8584L57.6356 16.3521C57.6399 16.2045 57.7299 16.0761 57.8606 16.0126C57.8969 15.9949 57.9318 15.9772 57.9681 15.958C58.0029 15.9388 58.0378 15.9181 58.0711 15.8975C58.196 15.8207 58.3514 15.8163 58.4762 15.8945L58.8987 16.1602H58.8973ZM57.5252 15.1196C56.8791 15.4724 56.0748 15.2259 55.7278 14.5676C55.3808 13.9107 55.6232 13.0915 56.2693 12.7388C56.9154 12.386 57.7212 12.634 58.0682 13.2908C58.4152 13.9476 58.1713 14.7668 57.5252 15.1181V15.1196Z" fill="#FDF6EF"/>
<path d="M9.42755 36.6954L10.2827 35.2946L9.86022 35.0289C9.73681 34.9507 9.66857 34.8075 9.68163 34.6599C9.68889 34.5787 9.6918 34.4961 9.68889 34.4134C9.68599 34.2658 9.76149 34.1271 9.89071 34.0577L10.3277 33.8186L9.56113 32.3647L9.1241 32.6038C8.99634 32.6732 8.84098 32.6614 8.72192 32.5772C8.65514 32.53 8.5869 32.4872 8.51575 32.4473C8.38799 32.3765 8.30813 32.2407 8.31249 32.0916L8.32846 31.5868L6.70813 31.5352L6.69361 32.0414C6.68926 32.1905 6.59924 32.3189 6.46712 32.3824C6.43082 32.4001 6.39597 32.4178 6.36113 32.437C6.32628 32.4562 6.29144 32.4769 6.25804 32.4975C6.13318 32.5743 5.97928 32.5787 5.85586 32.5005L5.43045 32.2333L4.57528 33.6341L4.99779 33.9012C5.1212 33.9795 5.18944 34.1226 5.17637 34.2702C5.16911 34.3514 5.16621 34.4341 5.16911 34.5153C5.17202 34.6629 5.09652 34.8001 4.9673 34.871L4.53027 35.1101L5.29688 36.564L5.7339 36.3249C5.86167 36.2555 6.01702 36.2673 6.13608 36.3514C6.20287 36.3987 6.27111 36.4415 6.34225 36.4799C6.47002 36.5507 6.54987 36.6865 6.54552 36.8356L6.52955 37.3419L8.14987 37.3935L8.16585 36.8872C8.1702 36.7396 8.26022 36.6112 8.39089 36.5478C8.42719 36.53 8.46203 36.5123 8.49833 36.4931C8.53318 36.474 8.56802 36.4533 8.60142 36.4326C8.72628 36.3559 8.88163 36.3514 9.0065 36.4297L9.429 36.6954H9.42755ZM8.05405 35.6548C7.40795 36.0075 6.60359 35.761 6.25659 35.1027C5.90958 34.4459 6.15205 33.6267 6.79815 33.2739C7.44425 32.9212 8.25006 33.1691 8.59706 33.826C8.94407 34.4828 8.70015 35.302 8.05405 35.6533V35.6548Z" fill="#FDF6EF"/>
<path d="M26.0275 9.86405L25.4598 8.8633L25.1593 9.04043C25.0707 9.09209 24.9618 9.08766 24.8762 9.03009C24.8283 8.9991 24.7803 8.96958 24.7295 8.94301C24.6381 8.89577 24.58 8.80278 24.58 8.69946V8.34521H23.4431V8.69946C23.4431 8.80278 23.3851 8.89577 23.2936 8.94301C23.2428 8.96958 23.1934 8.99762 23.147 9.03009C23.0613 9.08618 22.9524 9.09209 22.8638 9.04043L22.5633 8.8633L21.9956 9.86405L22.2976 10.0412C22.3862 10.0928 22.4355 10.1917 22.4297 10.2965C22.4297 10.3246 22.4283 10.3526 22.4283 10.3821C22.4283 10.4117 22.4283 10.4382 22.4297 10.4677C22.4355 10.5711 22.3862 10.67 22.2976 10.7216L21.9941 10.9002L22.5618 11.901L22.8638 11.7239C22.9524 11.6722 23.0613 11.6766 23.147 11.7342C23.1934 11.7652 23.2428 11.7947 23.2936 11.8198C23.3851 11.867 23.4431 11.96 23.4431 12.0633V12.4176H24.58V12.0633C24.58 11.96 24.6381 11.867 24.7295 11.8198C24.7803 11.7932 24.8283 11.7652 24.8762 11.7342C24.9618 11.6766 25.0707 11.6722 25.1593 11.7239L25.4613 11.901L26.029 10.9002L25.727 10.7231C25.6384 10.6714 25.5905 10.5725 25.5949 10.4692C25.5949 10.4412 25.5963 10.4117 25.5963 10.3836C25.5963 10.3556 25.5963 10.3275 25.5949 10.298C25.5891 10.1947 25.6384 10.0958 25.727 10.0427L26.029 9.86553L26.0275 9.86405ZM24.9415 10.3821C24.9415 10.9047 24.5248 11.3283 24.0108 11.3283C23.4969 11.3283 23.0802 10.9047 23.0802 10.3821C23.0802 9.85962 23.4969 9.436 24.0108 9.436C24.5248 9.436 24.9415 9.85962 24.9415 10.3821Z" fill="#FDF6EF"/>
<path d="M30.9829 63.5013C42.9355 63.5013 52.625 62.1082 52.625 60.3898C52.625 58.6714 42.9355 57.2783 30.9829 57.2783C19.0303 57.2783 9.34082 58.6714 9.34082 60.3898C9.34082 62.1082 19.0303 63.5013 30.9829 63.5013Z" fill="#FDF6EF"/>
<path d="M16.3106 11.7957C16.2946 11.1891 16.1669 10.5765 15.8895 10.0437C15.7502 9.77947 15.5658 9.53592 15.3233 9.37208C15.0808 9.21267 14.7803 9.14625 14.4986 9.19348C14.2155 9.23924 13.9643 9.41194 13.7901 9.6422C13.7015 9.75733 13.6333 9.88722 13.5854 10.023C13.5389 10.1588 13.5128 10.3064 13.5331 10.4407C13.5433 10.5072 13.5665 10.5691 13.6057 10.6105C13.6246 10.6326 13.6478 10.6459 13.6739 10.6577C13.6856 10.6651 13.7015 10.6651 13.7146 10.6695C13.7291 10.6725 13.7378 10.6695 13.7494 10.6695C13.8482 10.6503 13.9454 10.5175 14.0108 10.395C14.1487 10.1381 14.2271 9.84441 14.2808 9.55068C14.3839 8.96322 14.3781 8.34477 14.1981 7.77649C14.1066 7.49457 13.9716 7.22593 13.777 7.00453C13.5839 6.7846 13.3487 6.60305 13.0743 6.49087C12.9451 6.41854 12.8013 6.38312 12.662 6.33736C12.5923 6.30932 12.5182 6.30932 12.4456 6.29308C12.373 6.28275 12.3004 6.26208 12.2278 6.26356C11.9331 6.23699 11.6369 6.28127 11.3509 6.35212C10.7774 6.50711 10.246 6.82003 9.7959 7.22003C10.0079 7.00305 10.2503 6.82002 10.5073 6.66061C10.7658 6.50415 11.0402 6.36836 11.332 6.28275C11.6238 6.20304 11.9287 6.15138 12.2336 6.17205C12.3106 6.16762 12.3846 6.18828 12.4616 6.19714C12.5371 6.2119 12.614 6.2119 12.6866 6.23847C12.8333 6.28275 12.9843 6.3167 13.1208 6.38902C13.4068 6.49677 13.6681 6.68866 13.8728 6.92187C14.0819 7.15508 14.2257 7.43996 14.3244 7.73516C14.5175 8.33001 14.5277 8.96913 14.4246 9.57873C14.3665 9.88279 14.2837 10.1854 14.1327 10.4643C14.095 10.5337 14.05 10.6016 13.9963 10.6651C13.9396 10.7241 13.8728 10.7891 13.7683 10.8068C13.7131 10.8127 13.6667 10.8024 13.6246 10.7846C13.581 10.7669 13.5404 10.7404 13.5084 10.7049C13.4431 10.6356 13.414 10.547 13.401 10.4629C13.3777 10.2946 13.4111 10.1322 13.462 9.98169C13.5157 9.83113 13.5912 9.69091 13.6885 9.56544C13.8787 9.31452 14.1647 9.12559 14.4783 9.08426C14.789 9.03998 15.1142 9.11968 15.3698 9.29828C15.6253 9.47983 15.8126 9.73814 15.9476 10.0127C16.0827 10.2902 16.1712 10.5854 16.2307 10.8865C16.2888 11.1861 16.3164 11.4931 16.3062 11.7987L16.3106 11.7957Z" fill="#E06D38"/>
<path d="M46.2239 35.4023C46.2542 34.8047 46.396 34.2069 46.6903 33.6905C46.8381 33.4355 47.031 33.2001 47.2798 33.0473C47.5292 32.8977 47.8361 32.8416 48.1208 32.8969C48.4063 32.9493 48.6579 33.1279 48.8294 33.3603C48.9163 33.4753 48.9836 33.606 49.0284 33.7413C49.0717 33.8762 49.0952 34.0222 49.0724 34.1529C49.0612 34.2176 49.0343 34.278 48.9948 34.317C48.9756 34.3374 48.9508 34.3503 48.9249 34.3614C48.9127 34.3671 48.8973 34.3675 48.8826 34.3711C48.8682 34.3733 48.8586 34.3692 48.8475 34.3707C48.748 34.3486 48.6525 34.2147 48.5875 34.0921C48.4531 33.8352 48.38 33.5435 48.3322 33.2541C48.2407 32.6719 48.26 32.0638 48.4556 31.5105C48.555 31.2365 48.6982 30.9758 48.9002 30.7638C49.1003 30.5529 49.3436 30.3806 49.6257 30.2803C49.7586 30.2122 49.9056 30.1824 50.0481 30.141C50.1189 30.1163 50.1951 30.1172 50.2675 30.1036C50.3413 30.0963 50.4152 30.077 50.4902 30.0821C50.7894 30.066 51.0892 30.1163 51.3797 30.1956C51.9591 30.3659 52.4914 30.6889 52.9397 31.0976C52.7293 30.8789 52.4864 30.6906 52.2296 30.5256C51.9706 30.363 51.6952 30.2216 51.401 30.1277C51.1067 30.0398 50.7988 29.9799 50.4871 29.991C50.4092 29.9852 50.3328 30.0023 50.2562 30.0088C50.1795 30.0213 50.1008 30.0183 50.0272 30.0422C49.8776 30.0817 49.7234 30.1096 49.583 30.1772C49.2896 30.2744 49.0211 30.455 48.8083 30.6791C48.5908 30.9034 48.4392 31.1784 48.3313 31.4667C48.1225 32.0465 48.0979 32.6743 48.1885 33.2772C48.2408 33.5783 48.3177 33.8785 48.4658 34.1587C48.5021 34.2286 48.5466 34.2961 48.5998 34.36C48.6569 34.4204 48.7219 34.4859 48.8279 34.5068C48.8843 34.5129 48.9305 34.5057 48.9744 34.4904C49.0186 34.4737 49.0618 34.4492 49.0941 34.4143C49.1611 34.3465 49.1934 34.2605 49.2073 34.18C49.2348 34.0146 49.2043 33.8546 49.1558 33.7048C49.1041 33.5556 49.0305 33.4142 48.9345 33.2877C48.7471 33.0346 48.4613 32.8408 48.1433 32.7901C47.8274 32.7371 47.4971 32.8064 47.2325 32.973C46.9681 33.1441 46.7732 33.3925 46.6299 33.6593C46.4862 33.9274 46.3902 34.2173 46.3238 34.5107C46.2574 34.8041 46.2224 35.1058 46.2275 35.4063L46.2239 35.4023Z" fill="#E06D38"/>
<path d="M39.3836 9.94597C39.2849 9.59615 39.2703 9.22271 39.327 8.86108C39.3821 8.49945 39.5026 8.14521 39.7001 7.83376C39.8932 7.52232 40.1647 7.25221 40.4914 7.08099C40.8166 6.90829 41.1883 6.83301 41.5542 6.84482C41.9215 6.85515 42.2816 6.9511 42.6126 7.1046C42.9437 7.26106 43.2529 7.47214 43.4939 7.76144C43.6086 7.90757 43.719 8.07731 43.7262 8.29133C43.7291 8.39613 43.687 8.50979 43.613 8.58654C43.5389 8.65887 43.4591 8.71643 43.3575 8.74595C43.2573 8.77695 43.1469 8.76957 43.0511 8.73267C42.9553 8.69577 42.8754 8.63525 42.8043 8.56883C42.6649 8.43451 42.5662 8.27067 42.4849 8.1024C42.3237 7.76439 42.238 7.39981 42.1974 7.03228C42.1567 6.66475 42.1683 6.29131 42.2308 5.92673C42.3527 5.19905 42.7215 4.49646 43.3081 4.04774C43.5999 3.82634 43.9266 3.64774 44.2809 3.55622C44.6322 3.4588 45.0025 3.44109 45.3596 3.48537C45.7183 3.53113 46.0667 3.63593 46.3963 3.78058C46.7259 3.92523 47.0409 4.10531 47.3241 4.32671C46.7346 3.9208 46.0565 3.63002 45.3509 3.55918C44.9996 3.52227 44.6424 3.54737 44.3056 3.64774C43.9658 3.7422 43.6551 3.9208 43.3792 4.13926C43.1063 4.36214 42.874 4.6352 42.7041 4.94517C42.5328 5.25514 42.421 5.59758 42.3614 5.94887C42.2482 6.64999 42.3208 7.39538 42.6126 8.03746C42.6881 8.19539 42.7796 8.34742 42.9001 8.46403C43.0177 8.58064 43.1731 8.65739 43.3183 8.61016C43.3894 8.59097 43.4605 8.54078 43.5143 8.48912C43.5651 8.43599 43.5927 8.36661 43.5912 8.28986C43.5898 8.13487 43.4968 7.97694 43.3908 7.8441C43.1716 7.57546 42.874 7.36881 42.5589 7.21973C42.2424 7.07066 41.8968 6.97914 41.5484 6.9629C41.1999 6.94667 40.8471 7.01457 40.5364 7.1725C40.2242 7.32748 39.9585 7.57841 39.7654 7.87657C39.3778 8.47141 39.2253 9.23599 39.3836 9.94597Z" fill="#E06D38"/>
<path d="M48.1062 3.88433C47.8216 3.79281 47.5182 3.9537 47.4282 4.243C47.3381 4.53231 47.4964 4.8408 47.781 4.93231C48.0656 5.02382 48.369 4.86294 48.4576 4.57363C48.5476 4.28433 48.3893 3.97584 48.1048 3.88433H48.1062ZM48.3966 4.55297C48.3182 4.80685 48.051 4.94855 47.8013 4.86884C47.5516 4.78913 47.4122 4.51754 47.492 4.26367C47.5705 4.00979 47.8376 3.86809 48.0873 3.94927C48.3371 4.02898 48.475 4.30057 48.3966 4.55445V4.55297ZM48.1062 3.88433C47.8216 3.79281 47.5182 3.9537 47.4282 4.243C47.3381 4.53231 47.4964 4.8408 47.781 4.93231C48.0656 5.02382 48.369 4.86294 48.4576 4.57363C48.5476 4.28433 48.3893 3.97584 48.1048 3.88433H48.1062ZM48.3966 4.55297C48.3182 4.80685 48.051 4.94855 47.8013 4.86884C47.5516 4.78913 47.4122 4.51754 47.492 4.26367C47.5705 4.00979 47.8376 3.86809 48.0873 3.94927C48.3371 4.02898 48.475 4.30057 48.3966 4.55445V4.55297ZM48.1062 3.88433C47.8216 3.79281 47.5182 3.9537 47.4282 4.243C47.3381 4.53231 47.4964 4.8408 47.781 4.93231C48.0656 5.02382 48.369 4.86294 48.4576 4.57363C48.5476 4.28433 48.3893 3.97584 48.1048 3.88433H48.1062ZM48.3966 4.55297C48.3182 4.80685 48.051 4.94855 47.8013 4.86884C47.5516 4.78913 47.4122 4.51754 47.492 4.26367C47.5705 4.00979 47.8376 3.86809 48.0873 3.94927C48.3371 4.02898 48.475 4.30057 48.3966 4.55445V4.55297ZM48.2862 3.30425C47.6866 3.11236 47.0463 3.45037 46.8576 4.05997C46.6688 4.66958 47.0013 5.32051 47.6009 5.51239C48.2006 5.70427 48.8394 5.36626 49.0296 4.75666C49.2184 4.14706 48.8859 3.49613 48.2862 3.30425ZM48.5389 4.59873C48.4358 4.93231 48.0844 5.11829 47.7563 5.01349C47.4282 4.90869 47.2452 4.55149 47.3483 4.21791C47.4514 3.88433 47.8028 3.69835 48.1309 3.80314C48.459 3.90794 48.642 4.26514 48.5389 4.59873ZM48.459 4.57216C48.549 4.28286 48.3908 3.97436 48.1062 3.88285C47.8216 3.79134 47.5182 3.95222 47.4282 4.24153C47.3381 4.53083 47.4964 4.83932 47.781 4.93083C48.0656 5.02235 48.369 4.86146 48.4576 4.57216H48.459ZM48.3966 4.55297C48.3182 4.80685 48.051 4.94855 47.8013 4.86884C47.5516 4.78913 47.4122 4.51754 47.492 4.26367C47.5705 4.00979 47.8376 3.86809 48.0873 3.94927C48.3371 4.02898 48.475 4.30057 48.3966 4.55445V4.55297ZM48.1062 3.88433C47.8216 3.79281 47.5182 3.9537 47.4282 4.243C47.3381 4.53231 47.4964 4.8408 47.781 4.93231C48.0656 5.02382 48.369 4.86294 48.4576 4.57363C48.5476 4.28433 48.3893 3.97584 48.1048 3.88433H48.1062ZM48.3966 4.55297C48.3182 4.80685 48.051 4.94855 47.8013 4.86884C47.5516 4.78913 47.4122 4.51754 47.492 4.26367C47.5705 4.00979 47.8376 3.86809 48.0873 3.94927C48.3371 4.02898 48.475 4.30057 48.3966 4.55445V4.55297ZM48.1062 3.88433C47.8216 3.79281 47.5182 3.9537 47.4282 4.243C47.3381 4.53231 47.4964 4.8408 47.781 4.93231C48.0656 5.02382 48.369 4.86294 48.4576 4.57363C48.5476 4.28433 48.3893 3.97584 48.1048 3.88433H48.1062ZM48.3966 4.55297C48.3182 4.80685 48.051 4.94855 47.8013 4.86884C47.5516 4.78913 47.4122 4.51754 47.492 4.26367C47.5705 4.00979 47.8376 3.86809 48.0873 3.94927C48.3371 4.02898 48.475 4.30057 48.3966 4.55445V4.55297Z" fill="#E06D38"/>
<path d="M47.8248 5.53276L47.4066 5.39844L47.3369 5.70693L47.7086 5.82501L47.8248 5.53276Z" fill="#E06D38"/>
<path d="M47.0745 5.13433L46.8726 4.74023L46.6084 4.90703L46.7884 5.25832L47.0745 5.13433Z" fill="#E06D38"/>
<path d="M46.8202 4.31381L46.9523 3.89019L46.6489 3.81934L46.5312 4.19572L46.8202 4.31381Z" fill="#E06D38"/>
<path d="M47.2103 3.55046L47.5995 3.34529L47.4339 3.07812L47.0898 3.25968L47.2103 3.55046Z" fill="#E06D38"/>
<path d="M48.0176 3.29225L48.4357 3.42657L48.5054 3.11808L48.1337 3L48.0176 3.29225Z" fill="#E06D38"/>
<path d="M48.7686 3.69088L48.9718 4.08498L49.2346 3.91819L49.0546 3.56689L48.7686 3.69088Z" fill="#E06D38"/>
<path d="M49.0223 4.51123L48.8916 4.93485L49.1936 5.00718L49.3112 4.62931L49.0223 4.51123Z" fill="#E06D38"/>
<path d="M48.6323 5.27441L48.2432 5.47958L48.4087 5.74822L48.7542 5.56519L48.6323 5.27441Z" fill="#E06D38"/>
<path d="M53.0166 31.2025C53.0019 30.9039 53.2358 30.6524 53.5385 30.6404C53.8413 30.6283 54.0983 30.861 54.113 31.1596C54.1278 31.4581 53.8938 31.7096 53.5915 31.7203C53.2887 31.7323 53.0317 31.4996 53.017 31.2011L53.0166 31.2025ZM53.5873 31.656C53.8528 31.646 54.0588 31.4246 54.0465 31.1628C54.0341 30.9009 53.8079 30.696 53.542 30.7074C53.2764 30.7174 53.0704 30.9388 53.0842 31.201C53.0966 31.4629 53.3232 31.6664 53.5887 31.6564L53.5873 31.656ZM53.0166 31.2025C53.0019 30.9039 53.2358 30.6524 53.5385 30.6404C53.8413 30.6283 54.0983 30.861 54.113 31.1596C54.1278 31.4581 53.8938 31.7096 53.5915 31.7203C53.2887 31.7323 53.0317 31.4996 53.017 31.2011L53.0166 31.2025ZM53.5873 31.656C53.8528 31.646 54.0588 31.4246 54.0465 31.1628C54.0341 30.9009 53.8079 30.696 53.542 30.7074C53.2764 30.7174 53.0704 30.9388 53.0842 31.201C53.0966 31.4629 53.3232 31.6664 53.5887 31.6564L53.5873 31.656ZM53.0166 31.2025C53.0019 30.9039 53.2358 30.6524 53.5385 30.6404C53.8413 30.6283 54.0983 30.861 54.113 31.1596C54.1278 31.4581 53.8938 31.7096 53.5915 31.7203C53.2887 31.7323 53.0317 31.4996 53.017 31.2011L53.0166 31.2025ZM53.5873 31.656C53.8528 31.646 54.0588 31.4246 54.0465 31.1628C54.0341 30.9009 53.8079 30.696 53.542 30.7074C53.2764 30.7174 53.0704 30.9388 53.0842 31.201C53.0966 31.4629 53.3232 31.6664 53.5887 31.6564L53.5873 31.656ZM52.4097 31.2262C52.3795 30.5974 52.8717 30.0664 53.5094 30.0418C54.1471 30.0173 54.6898 30.5069 54.72 31.1358C54.7501 31.7647 54.2583 32.2943 53.6202 32.3202C52.9825 32.3447 52.4398 31.8551 52.4097 31.2262ZM53.5947 31.8053C53.9436 31.7921 54.2141 31.5008 54.1978 31.1567C54.1815 30.8127 53.8839 30.5435 53.535 30.5567C53.1861 30.57 52.9155 30.8612 52.9318 31.2053C52.9481 31.5494 53.2458 31.8185 53.5947 31.8053ZM53.5911 31.7217C53.2884 31.7337 53.0313 31.501 53.0166 31.2025C53.0019 30.9039 53.2358 30.6524 53.5385 30.6404C53.8413 30.6283 54.0983 30.861 54.113 31.1596C54.1278 31.4581 53.8938 31.7096 53.5915 31.7203L53.5911 31.7217ZM53.5873 31.656C53.8528 31.646 54.0588 31.4246 54.0465 31.1628C54.0341 30.9009 53.8079 30.696 53.542 30.7074C53.2764 30.7174 53.0704 30.9388 53.0842 31.201C53.0966 31.4629 53.3232 31.6664 53.5887 31.6564L53.5873 31.656ZM53.0166 31.2025C53.0019 30.9039 53.2358 30.6524 53.5385 30.6404C53.8413 30.6283 54.0983 30.861 54.113 31.1596C54.1278 31.4581 53.8938 31.7096 53.5915 31.7203C53.2887 31.7323 53.0317 31.4996 53.017 31.2011L53.0166 31.2025ZM53.5873 31.656C53.8528 31.646 54.0588 31.4246 54.0465 31.1628C54.0341 30.9009 53.8079 30.696 53.542 30.7074C53.2764 30.7174 53.0704 30.9388 53.0842 31.201C53.0966 31.4629 53.3232 31.6664 53.5887 31.6564L53.5873 31.656ZM53.0166 31.2025C53.0019 30.9039 53.2358 30.6524 53.5385 30.6404C53.8413 30.6283 54.0983 30.861 54.113 31.1596C54.1278 31.4581 53.8938 31.7096 53.5915 31.7203C53.2887 31.7323 53.0317 31.4996 53.017 31.2011L53.0166 31.2025ZM53.5873 31.656C53.8528 31.646 54.0588 31.4246 54.0465 31.1628C54.0341 30.9009 53.8079 30.696 53.542 30.7074C53.2764 30.7174 53.0704 30.9388 53.0842 31.201C53.0966 31.4629 53.3232 31.6664 53.5887 31.6564L53.5873 31.656Z" fill="#E06D38"/>
<path d="M54.6817 31.3577L54.6613 30.9208L54.9762 30.9315L54.9955 31.3215L54.6817 31.3577Z" fill="#E06D38"/>
<path d="M54.4933 30.5297L54.1634 30.2324L54.394 30.0221L54.6871 30.2855L54.4933 30.5297Z" fill="#E06D38"/>
<path d="M53.766 30.0716L53.3212 30.0892L53.3313 29.7777L53.7263 29.7633L53.766 30.0716Z" fill="#E06D38"/>
<path d="M52.928 30.2526L52.6295 30.574L52.4125 30.346L52.6787 30.0596L52.928 30.2526Z" fill="#E06D38"/>
<path d="M52.4693 30.9652L52.4912 31.4024L52.1748 31.3913L52.1555 31.0014L52.4693 30.9652Z" fill="#E06D38"/>
<path d="M52.6584 31.7934L52.9882 32.0907L52.7573 32.3024L52.466 32.038L52.6584 31.7934Z" fill="#E06D38"/>
<path d="M53.3857 32.2512L53.8305 32.2336L53.8204 32.545L53.4254 32.5594L53.3857 32.2512Z" fill="#E06D38"/>
<path d="M54.2239 32.0703L54.5238 31.7493L54.7394 31.9769L54.4732 32.2633L54.2239 32.0703Z" fill="#E06D38"/>
<path d="M10.8045 8.36992C11.0281 7.43559 10.4647 6.49388 9.54566 6.26657C8.62661 6.03926 7.70029 6.61196 7.4767 7.54629C7.2531 8.48062 7.81644 9.42233 8.7355 9.64964C9.65456 9.87695 10.5809 9.30425 10.8045 8.36992ZM9.91735 8.14999C9.81281 8.58689 9.38015 8.85406 8.95183 8.74778C8.52207 8.64151 8.25927 8.20165 8.36381 7.76474C8.46835 7.32784 8.90102 7.06068 9.33078 7.16695C9.76054 7.27323 10.0233 7.71308 9.9188 8.14851L9.91735 8.14999Z" fill="#E06D38"/>
<path d="M9.07078 9.65842L8.43194 9.50049L8.35645 9.96839L8.92559 10.1101L9.07078 9.65842Z" fill="#E06D38"/>
<path d="M7.90617 9.13763L7.56352 8.56641L7.18457 8.8439L7.48802 9.35166L7.90617 9.13763Z" fill="#E06D38"/>
<path d="M7.44428 7.93129L7.59964 7.28036L7.13793 7.20508L7 7.78368L7.44428 7.93129Z" fill="#E06D38"/>
<path d="M7.9571 6.74628L8.51898 6.39942L8.24602 6.0127L7.74512 6.32266L7.9571 6.74628Z" fill="#E06D38"/>
<path d="M9.14258 6.27686L9.78142 6.43627L9.85692 5.96689L9.28777 5.8252L9.14258 6.27686Z" fill="#E06D38"/>
<path d="M10.3076 6.79801L10.6503 7.37071L11.0292 7.09174L10.7258 6.58398L10.3076 6.79801Z" fill="#E06D38"/>
<path d="M10.7696 8.00391L10.6143 8.65484L11.076 8.73159L11.2139 8.15299L10.7696 8.00391Z" fill="#E06D38"/>
<path d="M10.2562 9.18896L9.69434 9.53731L9.96729 9.92255L10.4682 9.61259L10.2562 9.18896Z" fill="#E06D38"/>
<path d="M8.60536 8.27688L9.11934 8.56323L9.62025 8.25326L9.60718 7.65842L9.09466 7.37207L8.59375 7.68056L8.60682 8.2754L8.60536 8.27688ZM9.14983 7.78388C9.25001 7.80898 9.31099 7.91082 9.28631 8.01119C9.26163 8.11156 9.16145 8.17503 9.06272 8.14994C8.96399 8.12485 8.90155 8.023 8.92624 7.92263C8.95092 7.82078 9.0511 7.75879 9.14983 7.78388Z" fill="#E06D38"/>
<path fill-rule="evenodd" clip-rule="evenodd" d="M30.2162 27.3737C31.4938 28.8459 31.45 30.792 30.1108 32.0693C28.9787 33.1496 28.5507 36.0852 29.5838 35.6855C29.8739 35.5735 31.4955 35.1161 33.1884 34.6695L33.6706 34.5422C35.3363 34.1027 37.1073 34.3212 38.6162 35.1525C41.9405 36.984 44.249 39.2053 44.5867 40.8962C44.7414 41.6722 44.7735 45.2333 44.6575 48.8104L44.5072 53.4477C44.4683 54.6485 43.9824 55.7914 43.1447 56.6526C42.4287 57.3887 41.1005 58.1681 40.1932 58.3847C39.2858 58.6013 34.4107 58.7831 29.3594 58.7888C15.9739 58.804 15.7952 58.6677 16.0519 48.6251C16.1797 43.6166 16.3091 42.7712 17.1664 41.3519C18.4144 39.286 20.1436 38.2093 23.6807 37.2948L24.8523 36.992C25.8382 36.7372 26.5268 35.8478 26.5268 34.8296C26.5268 33.5237 26.2802 32.9009 25.52 32.2854C23.537 30.6796 23.8448 27.5647 26.1052 26.3655C27.4836 25.6342 29.0369 26.0153 30.2162 27.3737ZM28.1329 38.8464C21.363 40.8007 20.8406 41.052 19.7595 42.8771C19.0975 43.9946 18.9402 45.0671 18.9389 48.471C18.9373 53.1488 19.4268 54.785 20.9455 55.1774C22.0081 55.4521 32.5315 52.6853 34.6363 51.5785C36.562 50.5656 37.0679 48.9523 37.0679 43.8275C37.0679 39.5239 37.0017 39.1611 36.0328 38.1641C35.4636 37.5782 34.7523 37.1169 34.4516 37.1394C34.1514 37.1616 31.3079 37.9298 28.1329 38.8464ZM33.1863 45.0193C33.0653 48.093 33.0353 48.169 31.9028 48.3031C31.2858 48.3763 30.7433 47.8943 30.7433 47.273V45.4099C30.7433 42.3298 30.9237 41.9808 32.5538 41.907C33.2255 41.8767 33.2963 42.2252 33.1863 45.0193ZM25.1759 47.2271C25.2952 50.0031 25.2543 50.1433 24.1998 50.556C23.4849 50.8358 22.8443 50.4024 22.7941 49.6364C22.76 49.1161 22.7321 48.4748 22.7321 47.7636C22.7321 45.058 22.8505 44.5089 23.4699 44.3449C24.8466 43.9794 25.0511 44.3249 25.1759 47.2271Z" fill="#8A5136"/>
<path d="M8.886 14.594C10.468 14.594 11.574 15.756 11.574 17.394V22H9.922V17.73C9.922 16.75 9.292 16.05 8.396 16.05C7.5 16.05 6.758 16.652 6.646 17.422V22H4.938V14.762H6.646V15.728C7.094 15.056 7.934 14.594 8.886 14.594ZM16.9282 22.168C14.8282 22.168 13.0502 20.432 13.0502 18.374C13.0502 16.316 14.8282 14.594 16.9282 14.594C19.0282 14.594 20.8062 16.316 20.8062 18.374C20.8062 20.432 19.0282 22.168 16.9282 22.168ZM16.9282 20.712C18.1182 20.712 19.1262 19.648 19.1262 18.374C19.1262 17.114 18.1182 16.05 16.9282 16.05C15.7242 16.05 14.7162 17.114 14.7162 18.374C14.7162 19.648 15.7242 20.712 16.9282 20.712ZM31.7545 12.214H33.4625V22H31.7545V20.88C31.1805 21.692 30.3125 22.168 29.2485 22.168C27.3305 22.168 25.9305 20.6 25.9305 18.374C25.9305 16.162 27.3305 14.594 29.2485 14.594C30.3125 14.594 31.1805 15.07 31.7545 15.882V12.214ZM29.7105 20.712C30.9145 20.712 31.7545 19.732 31.7545 18.374C31.7545 17.016 30.9145 16.05 29.7105 16.05C28.4925 16.05 27.6245 17.016 27.6245 18.374C27.6245 19.732 28.4925 20.712 29.7105 20.712ZM38.5353 14.594C40.4533 14.594 41.6433 15.812 41.6433 17.646V22H39.9773V21.132C39.4453 21.804 38.5353 22.168 37.6953 22.168C36.1553 22.168 34.9933 21.258 34.9933 19.858C34.9933 18.43 36.3233 17.45 37.9473 17.45C38.6053 17.45 39.3193 17.59 39.9773 17.842V17.646C39.9773 16.806 39.5153 15.994 38.1993 15.994C37.5133 15.994 36.8553 16.232 36.2393 16.54L35.6513 15.35C36.6733 14.846 37.6253 14.594 38.5353 14.594ZM38.0733 20.922C38.8993 20.922 39.7813 20.502 39.9773 19.732V18.92C39.4453 18.738 38.8433 18.64 38.1993 18.64C37.3453 18.64 36.6593 19.116 36.6593 19.802C36.6593 20.488 37.2613 20.922 38.0733 20.922ZM47.1047 20.446L47.5947 21.594C47.1887 21.944 46.6007 22.168 46.0547 22.168C44.8507 22.168 44.0107 21.3 44.0107 20.082V16.176H42.9607V14.762H44.0107V12.774H45.6767V14.762H47.3147V16.176H45.6767V19.872C45.6767 20.362 45.9847 20.712 46.3907 20.712C46.6847 20.712 46.9507 20.6 47.1047 20.446ZM52.0704 14.594C53.9884 14.594 55.1784 15.812 55.1784 17.646V22H53.5124V21.132C52.9804 21.804 52.0704 22.168 51.2304 22.168C49.6904 22.168 48.5284 21.258 48.5284 19.858C48.5284 18.43 49.8584 17.45 51.4824 17.45C52.1404 17.45 52.8544 17.59 53.5124 17.842V17.646C53.5124 16.806 53.0504 15.994 51.7344 15.994C51.0484 15.994 50.3904 16.232 49.7744 16.54L49.1864 15.35C50.2084 14.846 51.1604 14.594 52.0704 14.594ZM51.6084 20.922C52.4344 20.922 53.3164 20.502 53.5124 19.732V18.92C52.9804 18.738 52.3784 18.64 51.7344 18.64C50.8804 18.64 50.1944 19.116 50.1944 19.802C50.1944 20.488 50.7964 20.922 51.6084 20.922Z" fill="#8A5136"/>
</g>
<defs>
<clipPath id="clip0_7218_37062">
<rect width="60" height="63" fill="white" transform="translate(0.982422 0.5)"/>
</clipPath>
</defs>
</svg>
