<svg width="32" height="40" viewBox="0 0 32 40" fill="none" xmlns="http://www.w3.org/2000/svg">
<path d="M0 4C0 1.79086 1.79086 0 4 0H20L32 12V36C32 38.2091 30.2091 40 28 40H4C1.79086 40 0 38.2091 0 36V4Z" fill="#E3495A"/>
<path opacity="0.3" d="M20 0L32 12H24C21.7909 12 20 10.2091 20 8V0Z" fill="white"/>
<path d="M5.93955 32V25.529H11.1595C11.3875 25.529 11.5975 25.586 11.7895 25.7C11.9815 25.814 12.1345 25.967 12.2485 26.159C12.3625 26.345 12.4195 26.552 12.4195 26.78V28.526C12.4195 28.754 12.3625 28.964 12.2485 29.156C12.1345 29.348 11.9815 29.501 11.7895 29.615C11.5975 29.723 11.3875 29.777 11.1595 29.777L7.12755 29.786V32H5.93955ZM7.23555 28.58H11.1055C11.1355 28.58 11.1625 28.571 11.1865 28.553C11.2105 28.535 11.2225 28.511 11.2225 28.481V26.825C11.2225 26.795 11.2105 26.771 11.1865 26.753C11.1625 26.729 11.1355 26.717 11.1055 26.717H7.23555C7.20555 26.717 7.17855 26.729 7.15455 26.753C7.13655 26.771 7.12755 26.795 7.12755 26.825V28.481C7.12755 28.511 7.13655 28.535 7.15455 28.553C7.17855 28.571 7.20555 28.58 7.23555 28.58ZM13.0767 32V25.52H18.2967C18.5247 25.52 18.7347 25.577 18.9267 25.691C19.1187 25.805 19.2717 25.958 19.3857 26.15C19.4997 26.336 19.5567 26.543 19.5567 26.771V30.749C19.5567 30.977 19.4997 31.187 19.3857 31.379C19.2717 31.565 19.1187 31.715 18.9267 31.829C18.7347 31.943 18.5247 32 18.2967 32H13.0767ZM14.3637 30.803H18.2427C18.2727 30.803 18.2997 30.794 18.3237 30.776C18.3477 30.752 18.3597 30.725 18.3597 30.695V26.825C18.3597 26.795 18.3477 26.771 18.3237 26.753C18.2997 26.729 18.2727 26.717 18.2427 26.717H14.3637C14.3337 26.717 14.3067 26.729 14.2827 26.753C14.2647 26.771 14.2557 26.795 14.2557 26.825V30.695C14.2557 30.725 14.2647 30.752 14.2827 30.776C14.3067 30.794 14.3337 30.803 14.3637 30.803ZM20.5825 32V25.52H26.5495V26.717H21.7795V28.157H25.6135V29.363H21.7795V32H20.5825Z" fill="white"/>
</svg>
