<svg width="24" height="24" viewBox="0 0 24 24" fill="none" xmlns="http://www.w3.org/2000/svg">
<path d="M18 9.99982L14 5.99982M2.49997 21.4998L5.88434 21.1238C6.29783 21.0778 6.50458 21.0549 6.69782 20.9923C6.86926 20.9368 7.03242 20.8584 7.18286 20.7592C7.35243 20.6474 7.49952 20.5003 7.7937 20.2061L21 6.99982C22.1046 5.89525 22.1046 4.10438 21 2.99981C19.8954 1.89525 18.1046 1.89524 17 2.99981L3.7937 16.2061C3.49952 16.5003 3.35243 16.6474 3.24061 16.8169C3.14141 16.9674 3.06299 17.1305 3.00749 17.302C2.94493 17.4952 2.92196 17.702 2.87601 18.1155L2.49997 21.4998Z" stroke="#644F48" stroke-width="1.5" stroke-linecap="round" stroke-linejoin="round"/>
</svg>
