<svg width="21" height="21" viewBox="0 0 21 21" fill="none" xmlns="http://www.w3.org/2000/svg">
<path d="M13 7.16667H7.66667C7.19996 7.16667 6.9666 7.16667 6.78834 7.07584C6.63154 6.99594 6.50406 6.86846 6.42416 6.71166C6.33333 6.5334 6.33333 6.30004 6.33333 5.83333V3M14.6667 18V12.6667C14.6667 12.2 14.6667 11.9666 14.5758 11.7883C14.4959 11.6315 14.3685 11.5041 14.2117 11.4242C14.0334 11.3333 13.8 11.3333 13.3333 11.3333H7.66667C7.19996 11.3333 6.9666 11.3333 6.78834 11.4242C6.63154 11.5041 6.50406 11.6315 6.42416 11.7883C6.33333 11.9666 6.33333 12.2 6.33333 12.6667V18M18 8.27124V14C18 15.4001 18 16.1002 17.7275 16.635C17.4878 17.1054 17.1054 17.4878 16.635 17.7275C16.1002 18 15.4001 18 14 18H7C5.59987 18 4.8998 18 4.36502 17.7275C3.89462 17.4878 3.51217 17.1054 3.27248 16.635C3 16.1002 3 15.4001 3 14V7C3 5.59987 3 4.8998 3.27248 4.36502C3.51217 3.89462 3.89462 3.51217 4.36502 3.27248C4.8998 3 5.59987 3 7 3H12.7288C13.1364 3 13.3402 3 13.5321 3.04605C13.7021 3.08688 13.8647 3.15422 14.0138 3.2456C14.182 3.34867 14.3261 3.4928 14.6144 3.78105L17.219 6.38562C17.5072 6.67387 17.6513 6.818 17.7544 6.98619C17.8458 7.13531 17.9131 7.29789 17.9539 7.46795C18 7.65976 18 7.86358 18 8.27124Z" stroke="#FAF7F0" stroke-width="1.5" stroke-linecap="round" stroke-linejoin="round"/>
</svg>
