<svg width="18" height="17" viewBox="0 0 18 17" fill="None" stroke="currentColor" xmlns="http://www.w3.org/2000/svg">
<path d="M12.3333 5.41677V2.50065C12.3333 1.80753 12.3333 1.46097 12.1873 1.248C12.0598 1.06192 11.8622 0.935514 11.6398 0.897668C11.3852 0.85435 11.0706 0.999578 10.4413 1.29003L3.04918 4.70176C2.48792 4.9608 2.20729 5.09032 2.00175 5.2912C1.82005 5.46878 1.68135 5.68556 1.59625 5.92496C1.5 6.19576 1.5 6.50483 1.5 7.12299V11.2501M12.75 10.8334H12.7583M1.5 8.08343L1.5 13.5834C1.5 14.5169 1.5 14.9836 1.68166 15.3401C1.84144 15.6537 2.09641 15.9087 2.41002 16.0684C2.76654 16.2501 3.23325 16.2501 4.16667 16.2501H13.8333C14.7668 16.2501 15.2335 16.2501 15.59 16.0684C15.9036 15.9087 16.1586 15.6537 16.3183 15.3401C16.5 14.9836 16.5 14.5169 16.5 13.5834V8.08343C16.5 7.15001 16.5 6.6833 16.3183 6.32678C16.1586 6.01318 15.9036 5.75821 15.59 5.59842C15.2335 5.41677 14.7668 5.41677 13.8333 5.41677L4.16667 5.41677C3.23325 5.41677 2.76654 5.41677 2.41002 5.59842C2.09641 5.75821 1.84144 6.01318 1.68166 6.32678C1.5 6.6833 1.5 7.15001 1.5 8.08343ZM13.1667 10.8334C13.1667 11.0636 12.9801 11.2501 12.75 11.2501C12.5199 11.2501 12.3333 11.0636 12.3333 10.8334C12.3333 10.6033 12.5199 10.4168 12.75 10.4168C12.9801 10.4168 13.1667 10.6033 13.1667 10.8334Z"  stroke-width="1.5" stroke-linecap="round" stroke-linejoin="round"/>
</svg>
