<svg width="32" height="40" viewBox="0 0 32 40" fill="none" xmlns="http://www.w3.org/2000/svg">
<path d="M0 4C0 1.79086 1.79086 0 4 0H20L32 12V36C32 38.2091 30.2091 40 28 40H4C1.79086 40 0 38.2091 0 36V4Z" fill="#00A061"/>
<path opacity="0.3" d="M20 0L32 12H24C21.7909 12 20 10.2091 20 8V0Z" fill="white"/>
<path d="M1.88568 32V31.667L4.32468 28.76L1.88568 25.853V25.52H3.17268L5.11668 27.824L7.04268 25.52H8.33868V25.853L5.89068 28.76L8.33868 31.658V32H7.04268L5.10768 29.705L3.17268 32H1.88568ZM9.28839 32V25.511H10.4764V30.803H15.7684V32H9.28839ZM17.5171 32C17.2891 32 17.0791 31.943 16.8871 31.829C16.7011 31.715 16.5511 31.565 16.4371 31.379C16.3231 31.187 16.2661 30.977 16.2661 30.749V30.254H17.4541V30.695C17.4541 30.725 17.4631 30.752 17.4811 30.776C17.5051 30.794 17.5321 30.803 17.5621 30.803H21.4411C21.4711 30.803 21.4951 30.794 21.5131 30.776C21.5371 30.752 21.5491 30.725 21.5491 30.695V29.462C21.5491 29.432 21.5371 29.408 21.5131 29.39C21.4951 29.372 21.4711 29.363 21.4411 29.363H17.5171C17.2891 29.363 17.0791 29.306 16.8871 29.192C16.7011 29.078 16.5511 28.928 16.4371 28.742C16.3231 28.55 16.2661 28.337 16.2661 28.103V26.771C16.2661 26.543 16.3231 26.336 16.4371 26.15C16.5511 25.958 16.7011 25.805 16.8871 25.691C17.0791 25.577 17.2891 25.52 17.5171 25.52H21.4951C21.7231 25.52 21.9301 25.577 22.1161 25.691C22.3081 25.805 22.4611 25.958 22.5751 26.15C22.6891 26.336 22.7461 26.543 22.7461 26.771V27.266H21.5491V26.825C21.5491 26.795 21.5371 26.771 21.5131 26.753C21.4951 26.729 21.4711 26.717 21.4411 26.717H17.5621C17.5321 26.717 17.5051 26.729 17.4811 26.753C17.4631 26.771 17.4541 26.795 17.4541 26.825V28.058C17.4541 28.088 17.4631 28.112 17.4811 28.13C17.5051 28.148 17.5321 28.157 17.5621 28.157H21.4951C21.7231 28.157 21.9301 28.214 22.1161 28.328C22.3081 28.442 22.4611 28.595 22.5751 28.787C22.6891 28.973 22.7461 29.183 22.7461 29.417V30.749C22.7461 30.977 22.6891 31.187 22.5751 31.379C22.4611 31.565 22.3081 31.715 22.1161 31.829C21.9301 31.943 21.7231 32 21.4951 32H17.5171ZM23.6386 32V31.667L26.0776 28.76L23.6386 25.853V25.52H24.9256L26.8696 27.824L28.7956 25.52H30.0916V25.853L27.6436 28.76L30.0916 31.658V32H28.7956L26.8606 29.705L24.9256 32H23.6386Z" fill="white"/>
</svg>
